<svg width="33" height="32" viewBox="0 0 33 32" fill="none" xmlns="http://www.w3.org/2000/svg">
<path d="M32.5371 24.4286C32.3285 21.9683 31.4737 19.5957 30.0497 17.5245C28.6258 15.4534 26.6774 13.7489 24.3802 12.5648L27.0424 8.21303C27.0789 8.15366 27.1027 8.0881 27.1123 8.02008C27.1219 7.95207 27.1172 7.88294 27.0985 7.81664C27.0797 7.75033 27.0473 7.68816 27.0031 7.63366C26.9589 7.57916 26.9037 7.5334 26.8408 7.499C26.7778 7.4646 26.7082 7.44223 26.6361 7.43317C26.5639 7.42411 26.4906 7.42853 26.4203 7.44618C26.3499 7.46384 26.284 7.49438 26.2262 7.53606C26.1684 7.57775 26.1198 7.62976 26.0833 7.68912L23.3853 12.0916C21.231 11.1825 18.8974 10.7126 16.5371 10.7126C14.1769 10.7126 11.8432 11.1825 9.68893 12.0916L6.99089 7.68912C6.91719 7.56923 6.79599 7.48184 6.65395 7.44618C6.51191 7.41053 6.36065 7.42953 6.23347 7.499C6.10628 7.56847 6.01358 7.68273 5.97576 7.81664C5.93794 7.95054 5.95809 8.09313 6.03179 8.21303L8.69397 12.5648C6.39685 13.7489 4.44847 15.4534 3.02448 17.5245C1.60049 19.5957 0.745679 21.9683 0.537109 24.4286M9.16904 20.1275C8.81522 20.1264 8.47632 19.993 8.22676 19.7565C7.97719 19.5201 7.83736 19.1999 7.83795 18.8664C7.83855 18.5328 7.97952 18.2131 8.22992 17.9775C8.48033 17.7418 8.8197 17.6094 9.17352 17.6094C9.52735 17.6094 9.86672 17.7418 10.1171 17.9775C10.3675 18.2131 10.5085 18.5328 10.5091 18.8664C10.5097 19.1999 10.3699 19.5201 10.1203 19.7565C9.87073 19.993 9.53183 20.1264 9.17801 20.1275M23.9052 20.1275C23.5514 20.1264 23.2125 19.993 22.9629 19.7565C22.7133 19.5201 22.5735 19.1999 22.5741 18.8664C22.5747 18.5328 22.7157 18.2131 22.9661 17.9775C23.2165 17.7418 23.5558 17.6094 23.9097 17.6094C24.2635 17.6094 24.6029 17.7418 24.8533 17.9775C25.1037 18.2131 25.2446 18.5328 25.2452 18.8664C25.2458 19.1999 25.106 19.5201 24.8564 19.7565C24.6069 19.993 24.268 20.1264 23.9141 20.1275" fill="white"/>
</svg>
