<svg width="32" height="32" viewBox="0 0 32 32" fill="none" xmlns="http://www.w3.org/2000/svg">
<path d="M27.891 10.9109C27.7393 11.0046 24.4035 12.951 24.4414 17.0001C24.4833 21.8434 28.6779 23.4562 28.7261 23.4745C28.6885 23.5898 28.0554 25.7717 26.515 28.025C25.1838 29.9771 23.8047 31.9181 21.6282 31.9586C19.4898 31.9979 18.8006 30.6871 16.3578 30.6871C13.9134 30.6871 13.1484 31.9181 11.1262 31.9979C9.02537 32.0775 7.42593 29.8899 6.08485 27.9485C3.34331 23.9755 1.24719 16.7204 4.06179 11.8243C5.45911 9.39274 7.95667 7.85225 10.6666 7.81246C12.7304 7.77337 14.6767 9.20289 15.9391 9.20289C17.1834 9.20289 19.4136 7.53647 22.0424 7.73137C23.0727 7.80789 25.9974 8.11606 27.891 10.9109ZM20.4203 5.10862C21.5368 3.75637 22.288 1.87313 22.0811 0C20.4742 0.0638623 18.5308 1.07268 17.3783 2.42407C16.3462 3.62119 15.4398 5.53851 15.6859 7.37342C17.4769 7.51211 19.3048 6.46171 20.4203 5.10862Z" fill="white"/>
</svg>
