<svg width="32" height="32" viewBox="0 0 32 32" fill="none" xmlns="http://www.w3.org/2000/svg">
<path d="M16.6622 0C16.4584 0 16.248 0.0106659 16.0324 0.027998C10.474 0.471966 11.9481 6.43687 11.864 8.42473C11.7627 9.88196 11.4695 11.0299 10.4819 12.4524C9.3182 13.8537 7.68502 16.1188 6.91051 18.48C6.54495 19.5893 6.37138 20.7252 6.53312 21.7984C6.48183 21.8438 6.43318 21.8891 6.38716 21.9784C6.04527 22.3357 5.79674 22.7797 5.51665 23.097C5.25498 23.3623 4.8789 23.453 4.46863 23.6303C4.05705 23.8116 3.60339 23.9889 3.33251 24.5382C3.21416 24.7889 3.15367 25.0622 3.15893 25.3395C3.15893 25.6048 3.19444 25.8741 3.23126 26.0541C3.30752 26.5861 3.38379 27.0261 3.28254 27.3474C2.95643 28.254 2.91567 28.8753 3.14447 29.3272C3.37327 29.7725 3.84797 29.9525 4.37921 30.1285C5.44565 30.3952 6.89079 30.3085 8.02823 30.9271C9.24588 31.5497 10.4819 31.8217 11.4682 31.5537C12.1598 31.4004 12.7437 30.9364 13.0566 30.2938C13.8285 30.2898 14.674 29.9352 16.0284 29.8485C16.9476 29.7712 18.0982 30.2045 19.4184 30.1138C19.4513 30.2938 19.5012 30.3792 19.5683 30.5591L19.5723 30.5631C20.0864 31.6004 21.0358 32.0724 22.0496 31.991C23.0635 31.911 24.143 31.2764 25.0175 30.2498C25.8472 29.2299 27.2306 28.8046 28.1445 28.246C28.6021 27.9807 28.9716 27.6207 28.9979 27.1087C29.0281 26.5754 28.7362 26.0261 28.059 25.2729V25.1435L28.0551 25.1395C27.8315 24.8729 27.7263 24.4262 27.6106 23.905C27.4988 23.3703 27.3713 22.857 26.9636 22.5104H26.9597C26.8821 22.4384 26.798 22.4211 26.7125 22.3304C26.6388 22.2797 26.5534 22.2477 26.4626 22.2451C27.0294 20.5412 26.8098 18.8453 26.2351 17.3201C25.5343 15.4402 24.3087 13.803 23.3751 12.6764C22.3284 11.3365 21.3027 10.0673 21.3225 8.18475C21.358 5.31562 21.6341 0.00799943 16.6622 0ZM17.3579 4.53967H17.375C17.655 4.53967 17.8957 4.62233 18.1429 4.80366C18.394 4.98364 18.5768 5.24629 18.7202 5.51427C18.8582 5.85958 18.9279 6.12623 18.9384 6.47954C18.9384 6.45287 18.9463 6.42621 18.9463 6.40087V6.53953C18.9437 6.5302 18.9411 6.51953 18.9411 6.51153L18.9358 6.47954C18.9332 6.80351 18.8661 7.12349 18.7386 7.4208C18.6768 7.58746 18.5821 7.74078 18.4585 7.86744C18.4203 7.8461 18.3835 7.82744 18.3428 7.81144C18.2047 7.75144 18.0811 7.72611 17.968 7.63412C17.8746 7.59679 17.7773 7.56612 17.68 7.54613C17.7445 7.46746 17.8707 7.36881 17.9193 7.28215C17.989 7.11149 18.0272 6.93017 18.0351 6.74618V6.72085C18.0377 6.54086 18.0114 6.35954 17.9549 6.18756C17.8957 6.00757 17.822 5.91958 17.7142 5.74226C17.6038 5.65426 17.4946 5.56627 17.3631 5.56627H17.3421C17.2198 5.56627 17.1106 5.60626 16.9976 5.74226C16.8726 5.86758 16.7793 6.01824 16.728 6.18756C16.6583 6.35688 16.6175 6.53953 16.6096 6.72085V6.74618C16.6123 6.86484 16.6202 6.98483 16.6359 7.10216C16.3822 7.01283 16.06 6.92217 15.8378 6.83284C15.8246 6.74618 15.8167 6.65686 15.8141 6.56753V6.54086C15.8036 6.18889 15.8706 5.83958 16.0113 5.5156C16.1192 5.22363 16.3164 4.97431 16.5768 4.80499C16.8016 4.633 17.0751 4.53967 17.3579 4.53967ZM13.463 4.61834H13.5103C13.697 4.61834 13.8653 4.68233 14.035 4.79832C14.2269 4.97031 14.3821 5.1823 14.4873 5.41828C14.6057 5.68359 14.6727 5.95291 14.6885 6.30755V6.31288C14.6977 6.49153 14.6964 6.58086 14.6859 6.66752V6.77418C14.6464 6.78351 14.6122 6.79818 14.5767 6.80618C14.3768 6.87951 14.2164 6.98617 14.0599 7.07283C14.0757 6.95417 14.077 6.83418 14.0639 6.71685V6.69685C14.0481 6.51953 14.0126 6.43154 13.9561 6.25289C13.9153 6.11689 13.8403 5.99557 13.7378 5.89691C13.6733 5.83692 13.5866 5.80625 13.4971 5.81158H13.4695C13.3762 5.81958 13.2986 5.86625 13.2249 5.98757C13.1408 6.09023 13.0869 6.21555 13.0671 6.34755C13.0316 6.49153 13.0211 6.63952 13.0369 6.78885V6.80751C13.0527 6.9875 13.0856 7.07549 13.1434 7.25281C13.2026 7.43147 13.271 7.51946 13.3604 7.61012C13.3748 7.62212 13.388 7.63412 13.4051 7.64212C13.313 7.71811 13.2512 7.73545 13.1737 7.82344C13.125 7.86077 13.0685 7.90343 13.0014 7.9141C12.8646 7.74744 12.7437 7.56746 12.6398 7.37814C12.5136 7.09816 12.4478 6.79418 12.436 6.48887C12.4136 6.18756 12.4504 5.88624 12.5412 5.59827C12.6135 5.33562 12.741 5.09297 12.9133 4.88498C13.0816 4.70766 13.2552 4.61834 13.463 4.61834ZM15.2658 6.89284C15.701 6.89284 16.2283 6.9795 16.8634 7.4248C17.2487 7.69145 17.5512 7.78344 18.2481 8.04876H18.252C18.5873 8.23008 18.7846 8.4034 18.8806 8.58072V8.40606C18.9766 8.60205 18.9831 8.83003 18.9016 9.03269C18.7399 9.44732 18.2231 9.89129 17.5025 10.1566V10.1593C17.1501 10.3393 16.8437 10.6032 16.4834 10.7792C16.1205 10.9592 15.7102 11.1685 15.1527 11.1352C14.9528 11.1459 14.7516 11.1152 14.5636 11.0459C14.4189 10.9659 14.2769 10.8779 14.1402 10.7819C13.8837 10.6019 13.6628 10.3393 13.3354 10.1619V10.1553H13.3288C12.8028 9.8273 12.5188 9.47265 12.4268 9.20734C12.336 8.85003 12.4202 8.58205 12.6806 8.4074C12.9751 8.22741 13.1802 8.04609 13.3157 7.95943C13.4524 7.86077 13.5037 7.82344 13.5471 7.78478H13.5497V7.78078C13.772 7.51146 14.1231 7.15549 14.653 6.9795C14.8358 6.9315 15.0396 6.89284 15.2658 6.89284ZM18.9463 9.74997C19.4184 11.6392 20.5203 14.383 21.2291 15.7135C21.6052 16.4255 22.3534 17.9254 22.6782 19.7453C22.8833 19.7386 23.1108 19.7692 23.3528 19.8306C24.2022 17.6027 22.6348 15.2082 21.9208 14.543C21.6302 14.275 21.6157 14.0963 21.759 14.0963C22.5335 14.8083 23.5539 16.1922 23.9235 17.7721C24.0931 18.4853 24.1325 19.244 23.9511 19.9986C24.0392 20.0359 24.1286 20.0799 24.2206 20.0879C25.5777 20.7998 26.0787 21.3385 25.838 22.1371V22.0798C25.7578 22.0758 25.6802 22.0798 25.6 22.0798H25.5803C25.7789 21.4571 25.341 20.9798 24.1799 20.4479C22.9767 19.9146 22.0154 19.9999 21.8511 21.0678C21.8419 21.1252 21.8353 21.1558 21.8287 21.2478C21.7393 21.2785 21.6459 21.3185 21.5539 21.3331C20.9885 21.6904 20.6834 22.2251 20.5111 22.9157C20.3402 23.6263 20.2876 24.4569 20.2416 25.4075V25.4115C20.214 25.8568 20.0167 26.5288 19.8221 27.2127C17.8497 28.6419 15.1145 29.2632 12.7884 27.658C12.6424 27.4007 12.4649 27.1594 12.2598 26.9474C12.1625 26.7807 12.0389 26.6314 11.8982 26.5021C12.1375 26.5021 12.3426 26.4634 12.5096 26.4128C12.7003 26.3234 12.8476 26.1621 12.9225 25.9675C13.0645 25.6115 12.9225 25.0382 12.4688 24.4169C12.0152 23.7943 11.2446 23.0903 10.1177 22.3891C9.28927 21.8571 8.82115 21.2291 8.60549 20.5279C8.38852 19.8159 8.41745 19.0813 8.58577 18.3347C8.90793 16.9081 9.73373 15.5216 10.261 14.6509C10.4017 14.5643 10.3097 14.8309 9.72452 15.9495C9.2038 16.9508 8.22415 19.2786 9.5641 21.0878C9.61407 19.7692 9.90336 18.468 10.4149 17.2534C11.1565 15.5496 12.7068 12.5818 12.8291 10.2299C12.8923 10.2779 13.1145 10.4099 13.2092 10.4992C13.4958 10.6766 13.7088 10.9432 13.985 11.1192C14.2624 11.3872 14.6122 11.5658 15.1369 11.5658C15.1882 11.5698 15.2355 11.5738 15.2829 11.5738C15.8233 11.5738 16.2415 11.3952 16.5926 11.2165C16.9739 11.0379 17.2776 10.7712 17.5656 10.6832H17.5722C18.1863 10.5032 18.6715 10.1473 18.9463 9.74997ZM21.8208 21.6931C21.8695 22.4944 22.2719 23.353 22.9806 23.529C23.7538 23.7076 24.8663 23.085 25.3357 22.5091L25.6132 22.4971C26.0274 22.4864 26.3719 22.5104 26.7269 22.853L26.7309 22.857C27.0044 23.1223 27.132 23.565 27.245 24.0249C27.3568 24.5596 27.4475 25.0649 27.7829 25.4462C28.4219 26.1488 28.631 26.6541 28.6192 26.9661L28.6231 26.9581V26.9821L28.6192 26.9661C28.5994 27.3154 28.3759 27.494 27.9643 27.7593C27.1359 28.294 25.6684 28.7086 24.7335 29.8525C23.9208 30.8351 22.9307 31.3711 22.0562 31.4404C21.1831 31.5111 20.4296 31.1738 19.9865 30.2432L19.9799 30.2392C19.7037 29.7045 19.8221 28.8726 20.0535 27.986C20.285 27.0954 20.6163 26.1928 20.6624 25.4555C20.711 24.5036 20.7623 23.6756 20.9188 23.037C21.0766 22.4171 21.3238 21.9744 21.7617 21.7251L21.8208 21.6958V21.6931ZM7.59955 21.7584H7.6127C7.68239 21.7584 7.75077 21.7651 7.81915 21.7771C8.31357 21.8504 8.74751 22.2211 9.16435 22.7797L10.361 24.9982L10.3649 25.0022C10.6844 25.7128 11.3564 26.4208 11.9284 27.1861C12.4991 27.9833 12.9409 28.6939 12.887 29.2792V29.2872C12.812 30.2792 12.2571 30.8178 11.4077 31.0124C10.5595 31.1924 9.40893 31.0151 8.25834 30.3938C6.98546 29.6792 5.47326 29.7685 4.50151 29.5912C4.01629 29.5032 3.69807 29.3232 3.55079 29.0566C3.40483 28.7913 3.4022 28.2553 3.71253 27.4167V27.4127L3.71516 27.4087C3.86901 26.9634 3.75461 26.4048 3.67966 25.9168C3.60733 25.3822 3.57052 24.9715 3.7362 24.6636C3.94659 24.2183 4.25692 24.1316 4.64221 23.953C5.03012 23.773 5.4851 23.6836 5.84671 23.3277H5.84934V23.3237C6.18597 22.9664 6.4345 22.5224 6.72773 22.2064C6.97757 21.9384 7.22742 21.7584 7.59955 21.7584ZM17.0133 9.66064C16.4413 9.92862 15.7707 10.3739 15.0567 10.3739C14.344 10.3739 13.7812 10.0179 13.3748 9.75263C13.171 9.57398 13.0067 9.39533 12.8831 9.306C12.6674 9.12735 12.6937 8.8607 12.7857 8.8607C12.9291 8.88203 12.9554 9.04069 13.0474 9.12868C13.1737 9.21667 13.3301 9.39399 13.5221 9.57265C13.9048 9.83929 14.4163 10.1953 15.0554 10.1953C15.6931 10.1953 16.44 9.83929 16.8937 9.57398C17.1501 9.39399 17.4788 9.12868 17.7458 8.95136C17.9509 8.7687 17.9417 8.59405 18.1126 8.59405C18.2823 8.61538 18.1574 8.77271 17.9193 9.03802C17.6813 9.21801 17.3145 9.48332 17.0133 9.66064ZM15.5906 7.54879V7.51946C15.5827 7.49413 15.6076 7.46347 15.6287 7.4528C15.726 7.39547 15.8654 7.4168 15.9706 7.45813C16.0534 7.45813 16.181 7.54746 16.1678 7.63812C16.1599 7.70345 16.056 7.72611 15.9903 7.72611C15.918 7.72611 15.8693 7.66878 15.8049 7.63545C15.7365 7.61145 15.6129 7.62479 15.5906 7.54879ZM14.866 7.54879C14.8397 7.62612 14.7174 7.61412 14.6477 7.63679C14.5859 7.67012 14.5346 7.72745 14.4649 7.72745C14.3979 7.72745 14.2927 7.70211 14.2848 7.63679C14.273 7.54879 14.4005 7.45947 14.482 7.45947C14.5886 7.41814 14.724 7.3968 14.8226 7.4528C14.8476 7.4648 14.87 7.4928 14.8621 7.51946V7.54746L14.866 7.54879Z" fill="white"/>
</svg>
