<svg width="32" height="32" viewBox="0 0 32 32" fill="none" xmlns="http://www.w3.org/2000/svg">
<path d="M4.30002 2.92691L6.11728 26.1754C6.14456 26.5245 6.38087 26.8222 6.71469 26.9281L16.2771 29.9598C16.4462 30.0134 16.6278 30.0134 16.7969 29.9598L26.3593 26.9281C26.6931 26.8222 26.9294 26.5245 26.9567 26.1754L28.774 2.92691C28.8131 2.42708 28.418 2 27.9167 2H5.15735C4.65603 2 4.26101 2.42708 4.30002 2.92691ZM24.1138 10.1401H12.2704L12.6278 13.4361H23.8562L23.1216 22.8325L16.537 24.9201L9.95243 22.8325L9.56869 17.9234H13.0248V20.3314L16.6294 21.2988L20.2124 20.3314L20.4904 16.4938H9.45692L8.72439 7.12207H24.3496L24.1138 10.1401Z" fill="white"/>
</svg>
