<svg width="16" height="16" viewBox="0 0 16 16" fill="none" xmlns="http://www.w3.org/2000/svg">
<path d="M8 13C7.81473 12.9998 7.63382 12.9492 7.4808 12.8549C5.2139 11.4656 4.23232 10.513 3.6909 9.91745C2.53712 8.64792 1.98474 7.34453 2.00032 5.93307C2.01849 4.31563 3.45582 3 5.20438 3C6.47585 3 7.35648 3.64661 7.86933 4.18516C7.88558 4.20204 7.90565 4.21559 7.9282 4.22487C7.95074 4.23415 7.97522 4.23895 8 4.23895C8.02478 4.23895 8.04926 4.23415 8.07181 4.22487C8.09435 4.21559 8.11442 4.20204 8.13067 4.18516C8.64352 3.64609 9.52415 3 10.7956 3C12.5442 3 13.9815 4.31562 13.9997 5.93333C14.0153 7.34505 13.4623 8.64844 12.3091 9.91771C11.7677 10.5133 10.7861 11.4659 8.5192 12.8552C8.36615 12.9494 8.18524 12.9999 8 13Z" fill="white"/>
</svg>
