<svg width="32" height="32" viewBox="0 0 32 32" fill="none" xmlns="http://www.w3.org/2000/svg">
  <path
    d="M16 1.33327C12.1513 1.29416 8.44454 2.78475 5.69435 5.47744C2.94416 8.17013 1.37559 11.8446 1.33337 15.6933C1.3482 18.7348 2.32663 21.6934 4.12812 24.1441C5.92962 26.5948 8.46147 28.4115 11.36 29.3333C12.0934 29.4666 12.36 29.0266 12.36 28.6399C12.36 28.2533 12.36 27.3999 12.36 26.1999C8.28004 27.0666 7.41337 24.2799 7.41337 24.2799C7.14177 23.4051 6.56435 22.6573 5.78671 22.1733C4.45337 21.2933 5.89337 21.3066 5.89337 21.3066C6.35424 21.3682 6.79518 21.5334 7.18312 21.7897C7.57106 22.046 7.89593 22.3868 8.13337 22.7866C8.54715 23.5041 9.22609 24.0305 10.0241 24.2524C10.822 24.4743 11.6752 24.3741 12.4 23.9733C12.4746 23.2431 12.8052 22.5629 13.3334 22.0533C10.08 21.6933 6.66671 20.4666 6.66671 14.9599C6.63761 13.5235 7.16836 12.1321 8.14671 11.0799C7.70114 9.8467 7.75376 8.48835 8.29337 7.29327C8.29337 7.29327 9.53337 6.9066 12.2934 8.75994C14.6959 8.11972 17.2242 8.11972 19.6267 8.75994C22.4267 6.9066 23.6267 7.29327 23.6267 7.29327C24.1663 8.48835 24.2189 9.8467 23.7734 11.0799C24.7744 12.1128 25.334 13.4949 25.3334 14.9333C25.3334 20.4533 21.8934 21.6666 18.6667 22.0266C19.02 22.3696 19.2929 22.7867 19.4658 23.2478C19.6387 23.7088 19.7073 24.2025 19.6667 24.6933V28.6266C19.6667 28.6266 19.9334 29.4666 20.6667 29.3199C23.5571 28.3925 26.0804 26.5754 27.8763 24.1281C29.6722 21.6809 30.6488 18.7287 30.6667 15.6933C30.6245 11.8446 29.0559 8.17013 26.3057 5.47744C23.5555 2.78475 19.8488 1.29416 16 1.33327Z"
    fill="white" />
</svg>