<svg width="32" height="32" viewBox="0 0 32 32" fill="none" xmlns="http://www.w3.org/2000/svg">
  <g clip-path="url(#clip0_32_282)">
    <path
      d="M26.76 6.00996C24.7233 5.05745 22.5731 4.38171 20.3645 4C20.0622 4.5519 19.7888 5.11973 19.5452 5.70112C17.1926 5.33898 14.8001 5.33898 12.4474 5.70112C12.2038 5.11979 11.9303 4.55197 11.6282 4C9.41811 4.38494 7.26654 5.06228 5.22776 6.01494C1.18025 12.132 0.0830347 18.0971 0.631642 23.9776C3.00196 25.7665 5.65503 27.127 8.47552 28C9.1106 27.1275 9.67258 26.2018 10.1555 25.2329C9.23828 24.883 8.35303 24.4512 7.50997 23.9427C7.73185 23.7783 7.94885 23.609 8.15854 23.4446C10.6117 24.623 13.2891 25.234 16 25.234C18.7108 25.234 21.3883 24.623 23.8414 23.4446C24.0535 23.6214 24.2705 23.7908 24.49 23.9427C23.6453 24.4521 22.7584 24.8846 21.8396 25.2354C22.3219 26.2039 22.8839 27.1287 23.5196 28C26.3425 27.1305 28.9976 25.7707 31.3683 23.9801C32.012 17.1606 30.2687 11.2503 26.76 6.00996ZM10.8504 20.3611C9.32159 20.3611 8.05857 18.944 8.05857 17.2005C8.05857 15.457 9.2777 14.0274 10.8455 14.0274C12.4133 14.0274 13.6666 15.457 13.6397 17.2005C13.6129 18.944 12.4084 20.3611 10.8504 20.3611ZM21.1496 20.3611C19.6183 20.3611 18.3602 18.944 18.3602 17.2005C18.3602 15.457 19.5793 14.0274 21.1496 14.0274C22.7198 14.0274 23.9633 15.457 23.9365 17.2005C23.9097 18.944 22.7076 20.3611 21.1496 20.3611Z"
      fill="white" />
  </g>
  <defs>
    <clipPath id="clip0_32_282">
      <rect width="31" height="24" fill="white" transform="translate(0.5 4)" />
    </clipPath>
  </defs>
</svg>