<svg width="32" height="32" viewBox="0 0 32 32" fill="none" xmlns="http://www.w3.org/2000/svg">
  <g clip-path="url(#clip0_32_298)">
    <path
      d="M27.332 11.3177C26.2622 11.3177 25.2767 11.6786 24.4896 12.2848C22.3469 10.9584 19.642 10.1241 16.6825 10.0132C16.6825 10.0085 16.6825 10.0054 16.6825 10.0007C16.6825 8.01652 18.1568 6.36982 20.0683 6.09954C20.415 7.56969 21.7347 8.66488 23.3105 8.66488C25.1502 8.66488 26.6417 7.17286 26.6417 5.33244C26.6417 3.49202 25.1502 2 23.3105 2C21.7019 2 20.3604 3.1405 20.048 4.65752C17.354 4.94655 15.2504 7.23223 15.2504 10.0022C15.2504 10.0085 15.2504 10.0132 15.2504 10.0194C12.3205 10.1428 9.64529 10.9771 7.52133 12.2942C6.73265 11.6833 5.74251 11.3193 4.66803 11.3193C2.0896 11.3193 0 13.4097 0 15.9891C0 17.8607 1.09946 19.473 2.68775 20.2183C2.84236 25.6395 8.74729 30 16.0109 30C23.2746 30 29.1873 25.6349 29.3341 20.2089C30.9099 19.459 32 17.8514 32 15.9906C32 13.4112 29.9104 11.3208 27.332 11.3208V11.3177Z"
      fill="white" />
  </g>
  <defs>
    <clipPath id="clip0_32_298">
      <rect width="32" height="32" fill="white" />
    </clipPath>
  </defs>
</svg>