<svg width="119" height="28" viewBox="0 0 119 28" fill="none" xmlns="http://www.w3.org/2000/svg">
<path d="M10.1525 0L9.44573 2.18565C8.67581 2.51155 7.90584 2.8374 7.136 3.1635C6.31914 2.99512 5.50017 2.80011 4.6724 2.7024C4.54173 2.84632 1.23546 7.82304 1.23639 7.87445C1.38871 8.23952 1.65035 8.55356 1.84821 8.89517L13.8738 12.9083L25.8994 8.89517L26.5112 7.87445C26.5112 7.87445 23.2058 2.84632 23.0751 2.7024C22.2474 2.80011 21.4285 2.99512 20.6116 3.1635C19.8418 2.8374 19.0718 2.51155 18.3019 2.18565L17.595 0H10.1525ZM2.71809 10.4234L2.33174 14.1329L3.02286 16.9924L8.56638 19.4573L13.8738 17.5148L19.1812 19.4573L24.7247 16.9924L25.4158 14.1329C25.4158 14.1329 25.1743 11.5793 25.0295 10.4234L13.8738 14.1446L2.71809 10.4234ZM5.92889 13.2017L11.1583 14.9672C11.1357 15.1513 11.0944 15.3327 11.0348 15.5087C10.5257 16.9527 8.91675 17.7194 7.44116 17.2212C5.96554 16.7231 5.18203 15.1486 5.69116 13.7047C5.75299 13.5297 5.83265 13.3612 5.92889 13.2017ZM21.8187 13.2017C21.9149 13.3612 21.9946 13.5297 22.0565 13.7047C22.5656 15.1486 21.7821 16.7231 20.3065 17.2212C18.8309 17.7194 17.2219 16.9527 16.7128 15.5087C16.6532 15.3327 16.6119 15.1513 16.5894 14.9672L21.8187 13.2017ZM1.33121 15.1242L0 16.415L1.99428 23.2581L8.29737 25.7881L7.95826 20.4648L1.98078 17.7428L1.33121 15.1242ZM26.4163 15.1242L25.7668 17.7428L19.7894 20.4648L19.4502 25.7881L25.7533 23.2581L27.7476 16.415L26.4163 15.1242ZM13.8738 18.6489L9.14723 20.4795L9.43411 26.23L13.8738 28L18.3135 26.23L18.6004 20.4795L13.8738 18.6489Z" fill="#FE3F02"/>
<path d="M93.6994 4.19995C92.057 4.19995 90.6006 4.59759 89.3314 5.3937C88.0619 6.18075 87.0678 7.30722 86.3487 8.77277C85.6387 10.2293 85.2839 11.9713 85.2839 13.9978V14.7159C85.2839 16.7424 85.6435 18.4892 86.3622 19.9548C87.0815 21.4113 88.0756 22.533 89.3449 23.32C90.623 24.1071 92.083 24.5 93.7254 24.5C95.3678 24.5 96.8193 24.1071 98.0799 23.32C99.3493 22.533 100.339 21.4113 101.049 19.9548C101.768 18.4892 102.127 16.7424 102.127 14.7159V13.9978C102.127 11.9713 101.768 10.2293 101.049 8.77277C100.33 7.30722 99.3355 6.18075 98.0664 5.3937C96.7969 4.59759 95.3414 4.19995 93.6994 4.19995ZM35.2849 4.47125V24.2286H39.7989V17.2545H42.483L45.9103 24.2286H50.7438V24.0254L46.6768 16.0405C47.1983 15.7846 47.6742 15.4943 48.0944 15.1639C48.7157 14.6663 49.1992 14.0385 49.5455 13.2786C49.8918 12.5186 50.0642 11.5777 50.0642 10.4559C50.0642 9.15321 49.7676 8.0581 49.1727 7.17153C48.5869 6.28496 47.7477 5.61514 46.6558 5.16281C45.5728 4.70143 44.2771 4.47125 42.7678 4.47125L35.2849 4.47125ZM52.8747 4.47125V24.2286H55.8835H57.4012H66.1227V20.524H57.4012V15.8703H64.7917V12.287H57.4012V8.18973H66.1227V4.47125H57.4012H55.8835H52.8747ZM68.1608 4.47125V24.2286H70.0909H72.6871H74.3251C76.0828 24.2286 77.6317 23.831 78.9721 23.0349C80.3125 22.2298 81.3644 21.1166 82.1281 19.6963C82.8913 18.2669 83.273 16.6163 83.273 14.7436V13.9701C83.273 12.0884 82.8913 10.4378 82.1281 9.01748C81.3644 7.58811 80.3077 6.47493 78.9584 5.67883C77.618 4.87368 76.0693 4.47125 74.3116 4.47125H72.6871H70.0107H68.1608ZM102.943 4.47125V8.18973H108.668V24.2286H113.168V8.18973H119V4.47125H113.168H108.668H102.943ZM93.6994 7.97269C94.516 7.97269 95.2124 8.19809 95.7893 8.65042C96.3663 9.10275 96.8012 9.77735 97.0941 10.673C97.3961 11.5595 97.5473 12.6584 97.5473 13.9701V14.7159C97.5473 16.0096 97.3999 17.1047 97.108 18.0003C96.8149 18.8959 96.38 19.5791 95.803 20.0495C95.2349 20.5109 94.5421 20.741 93.7254 20.741C92.891 20.741 92.1852 20.5109 91.6084 20.0495C91.0401 19.5791 90.6051 18.8959 90.3033 18.0003C90.01 17.1047 89.8638 16.0096 89.8638 14.7159V13.9701C89.8638 12.6584 90.0092 11.5595 90.3033 10.673C90.596 9.77735 91.0266 9.10275 91.5947 8.65042C92.1628 8.19809 92.8646 7.97269 93.6994 7.97269ZM39.7989 8.18973H42.7678C43.7 8.18973 44.3965 8.42948 44.8582 8.90895C45.3196 9.38842 45.5514 10.0439 45.5514 10.8762C45.5514 11.4371 45.4434 11.9166 45.2307 12.3146C45.0271 12.7127 44.7168 13.0162 44.2995 13.2243C43.8822 13.4324 43.3623 13.536 42.7408 13.536H39.7989V8.18973ZM72.6871 8.18973H74.3116C75.2705 8.18973 76.0741 8.40662 76.7224 8.84086C77.3704 9.26605 77.8586 9.90345 78.1868 10.7538C78.5243 11.6042 78.6921 12.6669 78.6921 13.9425V14.7436C78.6921 16.0101 78.5239 17.0728 78.1868 17.9322C77.8586 18.7917 77.3704 19.4386 76.7224 19.8729C76.0741 20.3071 75.2748 20.524 74.3251 20.524H72.6871V8.18973Z" fill="white"/>
</svg>
