<svg viewBox="0 0 201 192" fill="none" xmlns="http://www.w3.org/2000/svg">
<g clip-path="url(#clip0_32_180)">
<path d="M144.367 56.07C136.013 52.2457 127.195 49.5326 118.137 48C116.897 50.2159 115.775 52.4957 114.777 54.83C105.128 53.376 95.3155 53.376 85.6666 54.83C84.6672 52.496 83.5456 50.2161 82.3066 48C73.2425 49.5455 64.4182 52.2651 56.0566 56.09C39.4566 80.65 34.9566 104.6 37.2066 128.21C46.928 135.393 57.809 140.855 69.3766 144.36C71.9813 140.857 74.2861 137.14 76.2666 133.25C72.5049 131.845 68.8742 130.112 65.4166 128.07C66.3266 127.41 67.2166 126.73 68.0766 126.07C78.1376 130.801 89.1186 133.255 100.237 133.255C111.355 133.255 122.336 130.801 132.397 126.07C133.267 126.78 134.157 127.46 135.057 128.07C131.592 130.115 127.955 131.852 124.187 133.26C126.165 137.149 128.47 140.862 131.077 144.36C142.654 140.869 153.543 135.409 163.267 128.22C165.907 100.84 158.757 77.11 144.367 56.07ZM79.1166 113.69C72.8466 113.69 67.6666 108 67.6666 101C67.6666 94 72.6666 88.26 79.0966 88.26C85.5266 88.26 90.6666 94 90.5566 101C90.4466 108 85.5066 113.69 79.1166 113.69ZM121.357 113.69C115.077 113.69 109.917 108 109.917 101C109.917 94 114.917 88.26 121.357 88.26C127.797 88.26 132.897 94 132.787 101C132.677 108 127.747 113.69 121.357 113.69Z" fill="#5865F2"/>
</g>
<defs>
<clipPath id="clip0_32_180">
<rect width="127.14" height="96.36" fill="white" transform="translate(36.6667 48)"/>
</clipPath>
</defs>
</svg>
