<svg viewBox="175 0 276 279" fill="none" xmlns="http://www.w3.org/2000/svg">
<g clip-path="url(#clip0_16_566)">
<g filter="url(#filter0_f_16_566)">
<circle cx="312.5" cy="140" r="85" fill="#ED0042" fill-opacity="0.1"/>
</g>
<path fill-rule="evenodd" clip-rule="evenodd" d="M315.371 120.708C315.932 120.76 316.49 120.828 317.042 120.911L319.848 114.951C320.195 114.212 321.051 113.839 321.877 114.066L328.057 115.766C328.882 115.993 329.441 116.755 329.383 117.573L328.827 125.306C331.24 126.832 334.25 129.663 336.253 131.885C336.493 131.703 336.808 131.441 337.171 131.137C339.123 129.504 342.489 126.688 343.369 128.939C344.708 132.367 344.557 136.373 344.399 140.559L344.388 140.87C344.381 141.057 344.347 141.232 344.293 141.393C343.989 147.934 340.551 155.684 335.351 160.026C329.015 165.316 318.179 166 312.5 166C306.821 166 295.985 165.316 289.649 160.026C284.449 155.684 281.011 147.934 280.707 141.393C280.653 141.232 280.619 141.057 280.612 140.871L280.601 140.559C280.443 136.373 280.292 132.367 281.631 128.939C282.511 126.688 285.877 129.504 287.83 131.137C288.193 131.441 288.507 131.703 288.747 131.885C290.75 129.663 293.76 126.832 296.173 125.306L295.617 117.573C295.559 116.755 296.118 115.993 296.943 115.766L303.123 114.066C303.949 113.839 304.805 114.212 305.152 114.951L307.958 120.911C308.51 120.828 309.068 120.76 309.629 120.708C310.515 120.563 312.479 120.501 312.5 120.5C312.5 120.5 314.48 120.562 315.371 120.708ZM294.834 144.38C294.834 144.38 306.3 143.938 307.097 152.603C307.097 152.603 303.335 155.218 300.385 154.525C292.219 152.603 294.834 144.38 294.834 144.38ZM330.251 144.38C330.251 144.38 318.786 143.938 317.988 152.603C317.988 152.603 321.751 155.218 324.7 154.525C332.866 152.603 330.251 144.38 330.251 144.38Z" fill="#ED0042"/>
<rect x="205" y="32.5" width="215" height="215" rx="107.5" stroke="#ED0042" stroke-width="5" stroke-dasharray="10 10"/>
<rect x="278" y="2.5" width="68" height="68" rx="34" fill="black"/>
<rect x="278" y="2.5" width="68" height="68" rx="34" stroke="#ED0042" stroke-width="5"/>
<path d="M312.22 14.2475C311.243 14.2791 310.128 14.5241 308.943 15.1392C305.695 16.8306 306.12 20.4847 306.653 27.8001C306.788 29.7706 304.903 31.0772 303.271 33.6566C301.639 36.2275 301.461 38.3304 300.226 40.453C299.16 42.2862 299.194 42.4093 299.527 43.6664C299.397 43.7782 299.28 43.8956 299.166 44.0119C298.892 44.2916 298.661 44.6806 298.386 45.0723C298.112 45.464 297.81 45.8491 297.495 46.0765C297.244 46.2575 296.59 46.4046 295.944 46.5424C295.299 46.6803 294.629 46.7787 294.233 47.2976C293.9 47.7416 293.918 48.2669 293.984 48.8159C294.05 49.365 294.165 49.9993 294.161 50.8243C294.161 51.5126 294.047 52.0291 293.96 52.4873C293.959 52.4892 293.96 52.4932 293.96 52.4953C293.842 53.0619 293.74 53.6051 294.048 54.1341C294.304 54.5598 294.715 54.8793 295.478 55.1303C296.242 55.3814 297.406 55.6316 299.391 56.0461C300.411 56.2575 301.428 56.6396 302.363 56.9941C303.299 57.3486 304.145 57.6788 304.91 57.7412C305.627 57.7954 306.136 57.6974 306.549 57.4681C306.961 57.2388 307.252 56.9208 307.649 56.5683C308.025 56.2318 308.308 56.124 308.549 55.781C308.568 55.7538 308.58 55.7212 308.597 55.6927C309.578 55.27 309.536 55.425 311.931 55.283C314.537 55.1292 315.451 55.0175 317.675 55.5561C317.832 56.2391 318.124 56.7398 318.462 57.0343C318.918 57.4408 319.623 57.7412 320.937 57.7412C322.254 57.7412 323.193 57.4047 324.078 56.5201C324.599 55.999 325.138 55.5254 326.769 54.4073C327.4 53.9772 328.203 53.5171 328.906 53.1139C329.257 52.9123 329.587 52.7243 329.854 52.5596C330.121 52.3949 330.318 52.2728 330.473 52.1177C330.592 51.9984 331.126 51.6024 331.155 50.7761V50.7681C331.167 50.3563 330.982 50.0198 330.762 49.8121C330.541 49.6045 330.302 49.4946 330.151 49.4024L330.143 49.3944C329.757 49.1707 328.474 48.1408 327.91 47.2414C327.813 47.0861 327.815 46.7719 327.838 46.3416C327.86 45.9114 327.874 45.3593 327.532 44.8634C327.371 44.6285 327.149 44.5057 326.938 44.4457C327.119 43.9906 327.262 43.5709 327.348 43.2166C327.99 40.6118 325.974 36.0991 324.046 33.3674C322.118 30.6358 320.542 28.9448 319.764 25.4945C318.977 22.0355 319.951 23.0347 319.258 20.0156C318.919 18.5102 318.319 17.3155 317.651 16.529C316.983 15.7256 316.09 15.2716 315.651 15.0348C315.075 14.7255 314.008 14.2852 312.63 14.2475C312.496 14.2438 312.36 14.2429 312.22 14.2475ZM314.004 20.1602C314.073 20.1595 314.147 20.1618 314.221 20.1682C314.99 20.2274 315.295 20.386 315.827 21.3331C316.394 22.3225 316.384 23.1668 316.181 23.9279C316.073 24.3309 315.919 24.6578 315.651 24.9C315.59 24.8692 315.53 24.8392 315.466 24.8116C315.169 24.6839 314.832 24.5868 314.494 24.4903C314.703 24.4072 314.903 24.2711 315.04 24.0886C315.243 23.8264 315.316 23.4464 315.265 23.1165C315.138 22.3892 314.767 21.8231 314.132 21.8231C313.862 21.8231 313.539 21.8615 313.361 22.0561C313.124 22.3183 312.992 22.6514 312.992 23.1165C312.992 23.3593 313.007 23.6594 313.056 23.9199C312.991 23.8764 312.928 23.8293 312.855 23.7753C312.67 23.6383 312.415 23.5323 312.132 23.462C312.061 23.2954 312.016 23.1026 312.011 22.8514C311.995 22.0395 311.933 22.1365 312.212 21.4937C312.458 20.9387 312.966 20.1698 314.004 20.1602ZM308.541 20.4654C308.891 20.4686 309.308 20.5783 309.593 20.9716C309.991 21.5213 310.252 21.8129 310.252 22.6586C310.256 23.0101 310.219 23.2603 310.156 23.47C310.026 23.4989 309.892 23.5377 309.738 23.6146C309.655 23.6576 309.564 23.718 309.473 23.7753C309.503 23.5792 309.521 23.3706 309.521 23.1647C309.521 22.8011 309.409 22.4772 309.248 22.2489C309.096 22.0206 308.771 21.8553 308.517 21.8553C308.246 21.8553 308.05 21.9639 307.898 22.2007C307.678 22.5221 307.738 22.8869 307.738 23.1406C307.738 23.5466 308.022 24.0353 308.115 24.1368C308.283 24.3104 308.354 24.4498 308.453 24.5304C308.372 24.5978 308.292 24.666 308.228 24.7232C308.129 24.8082 308.044 24.8742 307.954 24.9482C307.795 24.7752 307.661 24.5509 307.569 24.2814C307.341 23.6048 307.254 23.2227 307.28 22.2248C307.288 21.8527 307.394 21.4997 307.521 21.2206C307.715 20.8062 308 20.5234 308.22 20.4895C308.315 20.4726 308.424 20.4644 308.541 20.4654ZM311.176 23.6226C311.732 23.6089 312.409 23.7595 312.702 23.9761C313.071 24.2508 313.348 24.4081 313.69 24.5224C314.255 24.7076 314.887 24.8404 315.361 25.0446C315.599 25.1467 315.799 25.2658 315.924 25.4061C316.049 25.5464 316.107 25.702 316.092 25.9202C316.055 26.5052 315.956 26.9126 315.755 27.2056C315.555 27.4986 315.254 27.6969 314.775 27.8483C314.333 27.9846 313.788 28.3919 313.2 28.7641C312.613 29.1364 311.993 29.4631 311.497 29.4631C311.002 29.4631 310.311 29.4766 309.963 29.3506C309.815 29.2981 309.585 29.1164 309.328 28.8766C309.072 28.6368 308.788 28.3445 308.469 28.0813H308.461C307.839 27.5774 307.303 27.0599 307.288 26.4183C307.276 26.0704 307.369 25.8611 307.561 25.6471C307.752 25.4331 308.045 25.2204 308.396 24.916C308.754 24.6002 309.419 24.0728 309.85 23.8476C309.853 23.8462 309.856 23.8489 309.858 23.8476C310.251 23.6538 310.492 23.6908 310.943 23.6387C311.016 23.6297 311.097 23.6246 311.176 23.6226ZM315.233 25.8801C315.154 25.883 315.058 25.9334 314.952 25.9925C314.846 26.0517 314.729 26.1298 314.606 26.2175C314.363 26.3916 314.112 26.5966 313.931 26.7316C313.93 26.7326 313.925 26.7307 313.923 26.7316C313.564 26.9486 312.936 27.2963 312.269 27.5671C311.599 27.8391 310.888 28.0309 310.397 27.9527C310.394 27.9525 310.391 27.9525 310.389 27.9527C309.981 27.9392 309.179 27.8369 308.669 27.5029C308.41 27.3436 308.127 27.1887 308.003 27.053L307.971 27.0851L307.955 27.1172C308.169 27.2654 308.171 27.297 308.485 27.5029C308.488 27.5048 308.49 27.5009 308.493 27.5029C308.537 27.5368 308.588 27.5614 308.621 27.5832C308.781 27.6815 308.945 27.7908 309.047 27.8644C309.493 28.0917 309.506 28.112 310.228 28.2178C310.231 28.2181 310.233 28.2181 310.236 28.2178C311.626 28.3003 312.711 27.6832 313.409 27.3181C314.064 26.9467 314.432 26.6849 314.863 26.3782C315.022 26.2709 315.156 26.2146 315.241 26.1532C315.283 26.1225 315.314 26.0897 315.321 26.0407C315.328 25.9918 315.308 25.9416 315.265 25.8961C315.263 25.8931 315.26 25.8904 315.257 25.8881C315.254 25.8879 315.252 25.8879 315.249 25.8881C315.247 25.8851 315.244 25.8824 315.241 25.8801C315.238 25.8798 315.236 25.8798 315.233 25.8801ZM316.012 27.4329C316.254 27.8907 316.333 28.4998 316.944 29.4711C317.849 30.8919 317.793 31.8903 318.808 34.1145C319.315 35.2308 319.914 36.0932 320.286 37.3279C320.692 38.6472 320.889 40.4451 320.889 42.2043C320.889 42.8808 320.949 43.6157 320.704 43.9878C320.702 43.9901 320.705 43.9935 320.704 43.9958C320.505 43.9563 320.296 43.9476 320.021 43.9476C319.475 43.9476 319.188 44.0155 318.719 44.3091C318.717 44.3106 318.714 44.3076 318.711 44.3091V44.3171C318.499 44.45 318.446 44.6282 318.398 44.7991C318.35 44.9732 318.329 45.1633 318.31 45.3856C318.272 45.8302 318.262 46.3824 318.262 46.9762C318.262 47.9174 318.271 48.9676 318.189 49.788C318.186 49.8215 318.185 49.8513 318.181 49.8844C318.121 49.9479 318.066 50.0094 317.996 50.0772C316.779 51.2528 315.101 52.4671 312.927 52.8729C310.382 53.3475 309.108 53.0487 308.469 52.7283C308.356 52.5089 308.222 52.3005 308.075 52.1017C307.712 51.6097 307.274 51.1139 306.806 50.4307C307.201 50.3652 307.88 50.2313 307.987 50.029C308.139 49.733 308.144 48.8202 307.89 48.4142C307.654 48.0168 305.9 46.7319 305.054 45.9961C304.251 45.2856 303.722 44.8927 303.215 44.4698C302.699 44.0468 302.687 44.5388 302.644 42.8389C302.602 41.139 302.935 40.3237 303.223 39.0551C303.51 37.7781 304.748 36.2029 305.095 34.9259C305.137 34.7398 305.213 34.5496 305.255 34.3635C305.357 33.9914 305.481 33.6105 305.617 33.2468C305.837 32.6379 306.113 32.0376 306.468 31.4795C307.162 30.4223 307.489 30.3658 307.489 29.6639C307.489 28.6152 307.431 28.7965 307.464 27.714C307.465 27.6948 307.471 27.683 307.472 27.6658C307.704 27.9492 308.002 28.2031 308.3 28.4451C308.606 28.6978 308.898 28.98 309.16 29.2244C309.418 29.4657 309.645 29.6618 309.875 29.7465V29.7546C309.876 29.7552 309.881 29.754 309.883 29.7546C310.329 29.9133 311.014 29.8831 311.497 29.8831C312.101 29.8831 312.74 29.5223 313.337 29.144C313.934 28.7657 314.494 28.3613 314.847 28.2523C315.358 28.0909 315.725 27.863 315.964 27.5132C315.982 27.4874 315.996 27.4599 316.012 27.4329ZM300.949 43.8753C301.009 43.8771 301.216 43.9543 301.463 44.1565C301.71 44.3586 301.999 44.6619 302.283 45C302.85 45.6763 303.413 46.5123 303.793 47.1048C304.56 48.3191 304.746 48.6575 305.906 50.495C306.505 51.4432 307.074 52.0422 307.456 52.5596C307.839 53.077 308.048 53.4776 308.059 54.1904C308.071 54.9688 308.002 55.2149 307.914 55.3392C307.828 55.4628 307.575 55.6125 307.143 55.998H307.135V55.99C306.712 56.3649 306.451 56.642 306.179 56.7933C305.908 56.9438 305.595 57.0159 304.974 56.9701C304.972 56.9699 304.968 56.9702 304.966 56.9701C304.387 56.921 303.566 56.6236 302.636 56.2711C301.703 55.9174 300.654 55.5195 299.551 55.291C297.569 54.8769 296.402 54.6159 295.719 54.3913C295.041 54.168 294.882 54.0381 294.707 53.7486C294.706 53.7462 294.708 53.7429 294.707 53.7406C294.549 53.4634 294.598 53.2068 294.715 52.648V52.64C294.797 52.2053 294.931 51.6082 294.932 50.8325C294.932 50.8289 294.932 50.8278 294.932 50.8244C294.936 49.9293 294.808 49.2339 294.747 48.7277C294.686 48.2196 294.695 47.9625 294.844 47.7636C294.938 47.64 295.474 47.4325 296.105 47.2977C296.736 47.1629 297.434 47.0719 297.945 46.7032C298.391 46.3808 298.731 45.9281 299.021 45.5142C299.311 45.1004 299.563 44.7104 299.72 44.5502C300.146 44.1155 300.397 43.8618 300.949 43.8753ZM319.732 44.7188C319.806 44.7168 319.896 44.7188 320.021 44.7188C320.283 44.7188 320.458 44.7305 320.559 44.751C320.642 44.7677 320.67 44.7773 320.696 44.7992C320.689 44.7974 320.706 44.84 320.704 44.9518C320.701 45.1008 320.67 45.3298 320.639 45.6105V45.6186C320.608 45.9578 320.687 46.2507 320.824 46.4621C320.962 46.6735 321.13 46.7911 321.25 46.8959V46.9039C321.477 47.094 321.884 47.4805 322.792 47.5546H322.801C323.678 47.6173 324.14 47.4366 324.552 47.1771C324.978 46.9083 325.51 46.5058 325.789 46.1568H325.797C325.932 45.9866 326.085 45.7196 326.239 45.482C326.316 45.3632 326.389 45.254 326.44 45.1847C326.448 45.1832 326.455 45.1781 326.464 45.1767C326.519 45.1679 326.576 45.1662 326.633 45.1687C326.746 45.1738 326.816 45.1862 326.898 45.3053C327.08 45.5704 327.088 45.8944 327.066 46.3014C327.045 46.7085 326.967 47.1973 327.251 47.6511C327.936 48.7435 329.169 49.7151 329.75 50.0531V50.0611C329.751 50.0619 329.756 50.0604 329.758 50.0611C329.95 50.1784 330.126 50.2747 330.232 50.3744C330.337 50.4736 330.388 50.547 330.384 50.744C330.384 50.7475 330.384 50.7482 330.384 50.752C330.361 51.3172 330.194 51.3036 329.926 51.5714C329.887 51.6109 329.695 51.746 329.444 51.9008C329.193 52.0556 328.879 52.2459 328.528 52.4471C327.827 52.8494 327.007 53.3148 326.335 53.7726H326.327C324.677 54.9041 324.084 55.4296 323.54 55.9738C322.766 56.7471 322.14 56.97 320.937 56.97C319.73 56.97 319.299 56.7431 318.976 56.4558H318.968C318.718 56.238 318.287 55.4643 318.326 54.2707C318.358 53.0691 318.762 51.8929 318.96 49.8683C319.048 48.9806 319.033 47.9127 319.033 46.9762C319.033 46.3861 319.039 45.8505 319.073 45.4579C319.09 45.2616 319.119 45.0944 319.145 45C319.157 44.9571 319.172 44.9429 319.177 44.9357C319.178 44.9349 319.177 44.928 319.177 44.9277C319.445 44.7584 319.508 44.7247 319.732 44.7188Z" fill="#ED0042"/>
<rect x="380" y="105.5" width="68" height="68" rx="34" fill="black"/>
<rect x="380" y="105.5" width="68" height="68" rx="34" stroke="#ED0042" stroke-width="5"/>
<g clip-path="url(#clip1_16_566)">
<path d="M423.895 141.409C423.541 141.409 423.194 141.304 422.9 141.109C422.605 140.913 422.376 140.635 422.24 140.309C422.104 139.984 422.069 139.626 422.138 139.28C422.207 138.935 422.378 138.617 422.628 138.368C422.879 138.119 423.198 137.949 423.546 137.881C423.893 137.812 424.253 137.847 424.581 137.982C424.908 138.117 425.188 138.345 425.385 138.638C425.582 138.931 425.687 139.275 425.687 139.628C425.687 140.1 425.498 140.553 425.162 140.887C424.826 141.221 424.37 141.409 423.895 141.409ZM404.105 141.409C403.75 141.409 403.404 141.304 403.109 141.109C402.815 140.913 402.585 140.635 402.449 140.309C402.314 139.984 402.278 139.626 402.348 139.28C402.417 138.935 402.587 138.617 402.838 138.368C403.088 138.119 403.408 137.949 403.755 137.881C404.103 137.812 404.463 137.847 404.79 137.982C405.118 138.117 405.398 138.345 405.594 138.638C405.791 138.931 405.896 139.275 405.896 139.628C405.896 140.1 405.708 140.553 405.372 140.887C405.036 141.221 404.58 141.409 404.105 141.409ZM424.537 130.686L428.116 124.526C428.173 124.441 428.212 124.346 428.23 124.246C428.249 124.146 428.247 124.044 428.223 123.945C428.2 123.846 428.157 123.752 428.096 123.671C428.036 123.589 427.959 123.521 427.87 123.47C427.782 123.419 427.684 123.387 427.582 123.375C427.481 123.363 427.378 123.372 427.28 123.402C427.182 123.431 427.092 123.48 427.014 123.546C426.936 123.611 426.872 123.692 426.827 123.783L423.203 130.023C420.309 128.732 417.172 128.065 414 128.065C410.828 128.065 407.691 128.732 404.797 130.023L401.173 123.783C401.128 123.692 401.064 123.611 400.986 123.546C400.908 123.48 400.818 123.431 400.72 123.402C400.622 123.372 400.519 123.363 400.418 123.375C400.316 123.387 400.218 123.419 400.13 123.47C400.041 123.521 399.964 123.589 399.904 123.671C399.843 123.752 399.8 123.846 399.777 123.945C399.753 124.044 399.751 124.146 399.77 124.246C399.788 124.346 399.827 124.441 399.884 124.526L403.463 130.686C397.317 134.009 393.115 140.193 392.5 147.5H435.5C434.885 140.193 430.682 134.009 424.537 130.686Z" fill="#ED0042"/>
</g>
<rect x="178" y="105.5" width="68" height="68" rx="34" fill="black"/>
<rect x="178" y="105.5" width="68" height="68" rx="34" stroke="#ED0042" stroke-width="5"/>
<g clip-path="url(#clip2_16_566)">
<path d="M220.568 137.467C220.553 134.672 221.807 132.562 224.345 131.008C222.925 128.959 220.78 127.832 217.948 127.611C215.267 127.397 212.337 129.188 211.264 129.188C210.131 129.188 207.534 127.687 205.495 127.687C201.28 127.755 196.802 131.077 196.802 137.833C196.802 139.829 197.165 141.89 197.89 144.018C198.856 146.814 202.345 153.669 205.985 153.555C207.889 153.509 209.233 152.191 211.71 152.191C214.111 152.191 215.358 153.555 217.48 153.555C221.15 153.502 224.307 147.271 225.228 144.468C220.304 142.129 220.568 137.612 220.568 137.467ZM216.294 124.96C218.356 122.492 218.167 120.245 218.106 119.438C216.286 119.544 214.179 120.687 212.979 122.096C211.657 123.604 210.879 125.47 211.045 127.573C213.016 127.725 214.814 126.704 216.294 124.96Z" fill="#ED0042"/>
</g>
<rect x="278" y="207.5" width="68" height="68" rx="34" fill="black"/>
<rect x="278" y="207.5" width="68" height="68" rx="34" stroke="#ED0042" stroke-width="5"/>
<path d="M313.112 242.612H327.071V256.571H313.112V242.612ZM297.929 242.612H311.888V256.571H297.929V242.612ZM313.112 227.428H327.071V241.388H313.112V227.428ZM297.929 227.428H311.888V241.388H297.929V227.428Z" fill="#ED0042"/>
</g>
<defs>
<filter id="filter0_f_16_566" x="127.5" y="-45" width="370" height="370" filterUnits="userSpaceOnUse" color-interpolation-filters="sRGB">
<feFlood flood-opacity="0" result="BackgroundImageFix"/>
<feBlend mode="normal" in="SourceGraphic" in2="BackgroundImageFix" result="shape"/>
<feGaussianBlur stdDeviation="50" result="effect1_foregroundBlur_16_566"/>
</filter>
<clipPath id="clip0_16_566">
<rect width="625" height="280" fill="white"/>
</clipPath>
<clipPath id="clip1_16_566">
<rect width="43" height="38" fill="white" transform="translate(392.5 119)"/>
</clipPath>
<clipPath id="clip2_16_566">
<rect width="29" height="39" fill="white" transform="translate(196.5 117)"/>
</clipPath>
</defs>
</svg>
