<svg viewBox="175 0 276 279" fill="none" xmlns="http://www.w3.org/2000/svg">
<g clip-path="url(#clip0_2032_152)">
<g filter="url(#filter0_f_2032_152)">
<circle cx="312.5" cy="140" r="85" fill="#FE3F02" fill-opacity="0.1"/>
</g>
<rect x="205" y="32.5" width="215" height="215" rx="107.5" stroke="#FE3F02" stroke-width="5" stroke-dasharray="10 10"/>
<path d="M302.539 99L300.552 105.323C298.388 106.266 296.224 107.208 294.06 108.152C291.763 107.664 289.461 107.1 287.134 106.818C286.767 107.234 277.473 121.631 277.476 121.78C277.904 122.836 278.639 123.744 279.195 124.732L313 136.342L346.805 124.732L348.524 121.78C348.524 121.78 339.233 107.234 338.865 106.818C336.539 107.1 334.237 107.664 331.94 108.152C329.776 107.208 327.612 106.266 325.448 105.323L323.461 99H302.539ZM281.641 129.153L280.555 139.884L282.497 148.156L298.081 155.287L313 149.668L327.919 155.287L343.502 148.156L345.445 139.884C345.445 139.884 344.766 132.497 344.359 129.153L313 139.918L281.641 129.153ZM290.666 137.191L305.366 142.298C305.303 142.831 305.187 143.355 305.019 143.865C303.588 148.042 299.065 150.26 294.918 148.819C290.769 147.377 288.567 142.823 289.998 138.646C290.172 138.139 290.396 137.652 290.666 137.191ZM335.334 137.191C335.604 137.652 335.828 138.139 336.002 138.646C337.433 142.823 335.231 147.377 331.083 148.819C326.935 150.26 322.412 148.042 320.981 143.865C320.813 143.355 320.697 142.831 320.634 142.298L335.334 137.191ZM277.742 142.752L274 146.486L279.606 166.282L297.324 173.601L296.371 158.202L279.568 150.327L277.742 142.752ZM348.258 142.752L346.432 150.327L329.629 158.202L328.676 173.601L346.394 166.282L352 146.486L348.258 142.752ZM313 152.949L299.713 158.244L300.52 174.88L313 180L325.48 174.88L326.287 158.244L313 152.949Z" fill="#FE3F02"/>
<rect x="278" y="2.5" width="68" height="68" rx="34" fill="black"/>
<rect x="278" y="2.5" width="68" height="68" rx="34" stroke="#FE3F02" stroke-width="5"/>
<path d="M312.22 14.2473C311.243 14.279 310.128 14.5239 308.943 15.1391C305.695 16.8305 306.12 20.4846 306.653 27.8C306.788 29.7705 304.903 31.0771 303.271 33.6565C301.639 36.2274 301.461 38.3303 300.226 40.4529C299.16 42.2861 299.194 42.4092 299.527 43.6663C299.397 43.7781 299.28 43.8955 299.166 44.0117C298.892 44.2914 298.661 44.6805 298.386 45.0722C298.112 45.4639 297.81 45.849 297.495 46.0764C297.244 46.2574 296.59 46.4045 295.944 46.5423C295.299 46.6802 294.629 46.7785 294.233 47.2975C293.9 47.7414 293.918 48.2668 293.984 48.8158C294.05 49.3648 294.165 49.9992 294.161 50.8242C294.161 51.5125 294.047 52.029 293.96 52.4872C293.959 52.4891 293.96 52.4931 293.96 52.4952C293.842 53.0618 293.74 53.6049 294.048 54.134C294.304 54.5597 294.715 54.8791 295.478 55.1302C296.242 55.3812 297.406 55.6315 299.391 56.046C300.411 56.2574 301.428 56.6395 302.363 56.994C303.299 57.3485 304.145 57.6786 304.91 57.7411C305.627 57.7953 306.136 57.6973 306.549 57.468C306.961 57.2387 307.252 56.9207 307.649 56.5682C308.025 56.2317 308.308 56.1239 308.549 55.7809C308.568 55.7537 308.58 55.7211 308.597 55.6925C309.578 55.2699 309.536 55.4249 311.931 55.2828C314.537 55.1291 315.451 55.0174 317.675 55.556C317.832 56.239 318.124 56.7397 318.462 57.0342C318.918 57.4406 319.623 57.7411 320.937 57.7411C322.254 57.7411 323.193 57.4046 324.078 56.52C324.599 55.9988 325.138 55.5253 326.769 54.4072C327.4 53.9771 328.203 53.5169 328.906 53.1138C329.257 52.9122 329.587 52.7242 329.854 52.5595C330.121 52.3947 330.318 52.2727 330.473 52.1176C330.592 51.9983 331.126 51.6023 331.155 50.776V50.768C331.167 50.3561 330.982 50.0196 330.762 49.812C330.541 49.6043 330.302 49.4944 330.151 49.4023L330.143 49.3943C329.757 49.1706 328.474 48.1407 327.91 47.2413C327.813 47.086 327.815 46.7717 327.838 46.3415C327.86 45.9113 327.874 45.3592 327.532 44.8633C327.371 44.6284 327.149 44.5056 326.938 44.4456C327.119 43.9904 327.262 43.5708 327.348 43.2164C327.99 40.6117 325.974 36.099 324.046 33.3673C322.118 30.6356 320.542 28.9447 319.764 25.4944C318.977 22.0354 319.951 23.0346 319.258 20.0155C318.919 18.5101 318.319 17.3154 317.651 16.5289C316.983 15.7255 316.09 15.2714 315.651 15.0346C315.075 14.7254 314.008 14.2851 312.63 14.2473C312.496 14.2437 312.36 14.2428 312.22 14.2473ZM314.004 20.16C314.073 20.1594 314.147 20.1617 314.221 20.1681C314.99 20.2273 315.295 20.3859 315.827 21.333C316.394 22.3224 316.384 23.1667 316.181 23.9278C316.073 24.3308 315.919 24.6577 315.651 24.8999C315.59 24.8691 315.53 24.8391 315.466 24.8115C315.169 24.6838 314.832 24.5866 314.494 24.4901C314.703 24.407 314.903 24.271 315.04 24.0885C315.243 23.8263 315.316 23.4462 315.265 23.1164C315.138 22.3891 314.767 21.823 314.132 21.823C313.862 21.823 313.539 21.8613 313.361 22.056C313.124 22.3181 312.992 22.6513 312.992 23.1164C312.992 23.3592 313.007 23.6593 313.056 23.9198C312.991 23.8763 312.928 23.8292 312.855 23.7752C312.67 23.6382 312.415 23.5321 312.132 23.4618C312.061 23.2953 312.016 23.1024 312.011 22.8513C311.995 22.0394 311.933 22.1364 312.212 21.4936C312.458 20.9386 312.966 20.1696 314.004 20.16ZM308.541 20.4653C308.891 20.4685 309.308 20.5782 309.593 20.9714C309.991 21.5211 310.252 21.8128 310.252 22.6585C310.256 23.01 310.219 23.2602 310.156 23.4699C310.026 23.4988 309.892 23.5376 309.738 23.6145C309.655 23.6575 309.564 23.7179 309.473 23.7752C309.503 23.5791 309.521 23.3705 309.521 23.1646C309.521 22.801 309.409 22.4771 309.248 22.2488C309.096 22.0204 308.771 21.8551 308.517 21.8551C308.246 21.8551 308.05 21.9638 307.898 22.2006C307.678 22.5219 307.738 22.8868 307.738 23.1405C307.738 23.5464 308.022 24.0352 308.115 24.1367C308.283 24.3103 308.354 24.4497 308.453 24.5303C308.372 24.5977 308.292 24.6659 308.228 24.7231C308.129 24.8081 308.044 24.8741 307.954 24.9481C307.795 24.775 307.661 24.5508 307.569 24.2813C307.341 23.6047 307.254 23.2226 307.28 22.2247C307.288 21.8526 307.394 21.4996 307.521 21.2205C307.715 20.8061 308 20.5233 308.22 20.4894C308.315 20.4725 308.424 20.4643 308.541 20.4653ZM311.176 23.6225C311.732 23.6087 312.409 23.7594 312.702 23.976C313.071 24.2507 313.348 24.408 313.69 24.5223C314.255 24.7075 314.887 24.8402 315.361 25.0445C315.599 25.1466 315.799 25.2657 315.924 25.406C316.049 25.5463 316.107 25.7019 316.092 25.9201C316.055 26.5051 315.956 26.9125 315.755 27.2055C315.555 27.4985 315.254 27.6968 314.775 27.8482C314.333 27.9844 313.788 28.3918 313.2 28.764C312.613 29.1363 311.993 29.4629 311.497 29.4629C311.002 29.4629 310.311 29.4765 309.963 29.3505C309.815 29.298 309.585 29.1163 309.328 28.8765C309.072 28.6367 308.788 28.3444 308.469 28.0812H308.461C307.839 27.5773 307.303 27.0598 307.288 26.4182C307.276 26.0703 307.369 25.861 307.561 25.647C307.752 25.433 308.045 25.2202 308.396 24.9159C308.754 24.6001 309.419 24.0727 309.85 23.8475C309.853 23.8461 309.856 23.8488 309.858 23.8475C310.251 23.6537 310.492 23.6907 310.943 23.6386C311.016 23.6296 311.097 23.6245 311.176 23.6225ZM315.233 25.88C315.154 25.8829 315.058 25.9333 314.952 25.9924C314.846 26.0515 314.729 26.1297 314.606 26.2174C314.363 26.3914 314.112 26.5965 313.931 26.7315C313.93 26.7325 313.925 26.7306 313.923 26.7315C313.564 26.9484 312.936 27.2961 312.269 27.567C311.599 27.839 310.888 28.0307 310.397 27.9526C310.394 27.9524 310.391 27.9524 310.389 27.9526C309.981 27.9391 309.179 27.8368 308.669 27.5027C308.41 27.3435 308.127 27.1886 308.003 27.0529L307.971 27.085L307.955 27.1171C308.169 27.2653 308.171 27.2969 308.485 27.5027C308.488 27.5046 308.49 27.5008 308.493 27.5027C308.537 27.5366 308.588 27.5613 308.621 27.5831C308.781 27.6814 308.945 27.7907 309.047 27.8642C309.493 28.0916 309.506 28.1119 310.228 28.2177C310.231 28.218 310.233 28.218 310.236 28.2177C311.626 28.3002 312.711 27.6831 313.409 27.318C314.064 26.9466 314.432 26.6848 314.863 26.378C315.022 26.2708 315.156 26.2145 315.241 26.1531C315.283 26.1224 315.314 26.0895 315.321 26.0406C315.328 25.9917 315.308 25.9414 315.265 25.896C315.263 25.893 315.26 25.8903 315.257 25.888C315.254 25.8877 315.252 25.8877 315.249 25.888C315.247 25.885 315.244 25.8823 315.241 25.8799C315.238 25.8797 315.236 25.8797 315.233 25.88ZM316.012 27.4328C316.254 27.8906 316.333 28.4997 316.944 29.471C317.849 30.8918 317.793 31.8902 318.808 34.1144C319.315 35.2307 319.914 36.0931 320.286 37.3278C320.692 38.6471 320.889 40.445 320.889 42.2042C320.889 42.8806 320.949 43.6155 320.704 43.9876C320.702 43.9899 320.705 43.9934 320.704 43.9957C320.505 43.9562 320.296 43.9475 320.021 43.9475C319.475 43.9475 319.188 44.0154 318.719 44.309C318.717 44.3105 318.714 44.3074 318.711 44.309V44.317C318.499 44.4498 318.446 44.628 318.398 44.799C318.35 44.9731 318.329 45.1632 318.31 45.3855C318.272 45.8301 318.262 46.3823 318.262 46.9761C318.262 47.9173 318.271 48.9674 318.189 49.7879C318.186 49.8214 318.185 49.8512 318.181 49.8843C318.121 49.9478 318.066 50.0093 317.996 50.0771C316.779 51.2527 315.101 52.4669 312.927 52.8728C310.382 53.3473 309.108 53.0486 308.469 52.7281C308.356 52.5087 308.222 52.3003 308.075 52.1015C307.712 51.6096 307.274 51.1138 306.806 50.4305C307.201 50.3651 307.88 50.2311 307.987 50.0289C308.139 49.7329 308.144 48.8201 307.89 48.4141C307.654 48.0166 305.9 46.7318 305.054 45.996C304.251 45.2855 303.722 44.8926 303.215 44.4696C302.699 44.0467 302.687 44.5387 302.644 42.8388C302.602 41.1388 302.935 40.3236 303.223 39.055C303.51 37.778 304.748 36.2028 305.095 34.9257C305.137 34.7397 305.213 34.5494 305.255 34.3634C305.357 33.9913 305.481 33.6104 305.617 33.2467C305.837 32.6378 306.113 32.0375 306.468 31.4793C307.162 30.4222 307.489 30.3657 307.489 29.6637C307.489 28.6151 307.431 28.7964 307.464 27.7139C307.465 27.6947 307.471 27.6829 307.472 27.6657C307.704 27.9491 308.002 28.203 308.3 28.445C308.606 28.6976 308.898 28.9799 309.16 29.2242C309.418 29.4655 309.645 29.6616 309.875 29.7464V29.7545C309.876 29.7551 309.881 29.7539 309.883 29.7545C310.329 29.9132 311.014 29.883 311.497 29.883C312.101 29.883 312.74 29.5222 313.337 29.1439C313.934 28.7656 314.494 28.3612 314.847 28.2522C315.358 28.0908 315.725 27.8628 315.964 27.5131C315.982 27.4872 315.996 27.4598 316.012 27.4328ZM300.949 43.8752C301.009 43.877 301.216 43.9542 301.463 44.1563C301.71 44.3585 301.999 44.6617 302.283 44.9999C302.85 45.6762 303.413 46.5121 303.793 47.1047C304.56 48.319 304.746 48.6573 305.906 50.4948C306.505 51.4431 307.074 52.0421 307.456 52.5595C307.839 53.0769 308.048 53.4775 308.059 54.1903C308.071 54.9687 308.002 55.2148 307.914 55.3391C307.828 55.4627 307.575 55.6124 307.143 55.9978H307.135V55.9898C306.712 56.3648 306.451 56.6419 306.179 56.7932C305.908 56.9436 305.595 57.0158 304.974 56.9699C304.972 56.9698 304.968 56.9701 304.966 56.9699C304.387 56.9209 303.566 56.6235 302.636 56.271C301.703 55.9173 300.654 55.5194 299.551 55.2909C297.569 54.8768 296.402 54.6158 295.719 54.3912C295.041 54.1679 294.882 54.0379 294.707 53.7485C294.706 53.7461 294.708 53.7428 294.707 53.7405C294.549 53.4632 294.598 53.2067 294.715 52.6479V52.6399C294.797 52.2052 294.931 51.6081 294.932 50.8323C294.932 50.8288 294.932 50.8277 294.932 50.8243C294.936 49.9292 294.808 49.2338 294.747 48.7276C294.686 48.2194 294.695 47.9624 294.844 47.7635C294.938 47.6398 295.474 47.4324 296.105 47.2976C296.736 47.1627 297.434 47.0718 297.945 46.7031C298.391 46.3807 298.731 45.928 299.021 45.5141C299.311 45.1003 299.563 44.7103 299.72 44.5501C300.146 44.1154 300.397 43.8617 300.949 43.8752ZM319.732 44.7187C319.806 44.7166 319.896 44.7187 320.021 44.7187C320.283 44.7187 320.458 44.7304 320.559 44.7508C320.642 44.7676 320.67 44.7772 320.696 44.799C320.689 44.7972 320.706 44.8399 320.704 44.9517C320.701 45.1007 320.67 45.3296 320.639 45.6104V45.6184C320.608 45.9577 320.687 46.2505 320.824 46.462C320.962 46.6734 321.13 46.791 321.25 46.8958V46.9038C321.477 47.0939 321.884 47.4804 322.792 47.5545H322.801C323.678 47.6172 324.14 47.4364 324.552 47.1769C324.978 46.9082 325.51 46.5056 325.789 46.1567H325.797C325.932 45.9865 326.085 45.7194 326.239 45.4819C326.316 45.3631 326.389 45.2539 326.44 45.1846C326.448 45.1831 326.455 45.1779 326.464 45.1766C326.519 45.1678 326.576 45.166 326.633 45.1686C326.746 45.1737 326.816 45.1861 326.898 45.3051C327.08 45.5703 327.088 45.8943 327.066 46.3013C327.045 46.7084 326.967 47.1972 327.251 47.651C327.936 48.7434 329.169 49.715 329.75 50.053V50.061C329.751 50.0618 329.756 50.0602 329.758 50.061C329.95 50.1783 330.126 50.2745 330.232 50.3743C330.337 50.4734 330.388 50.5469 330.384 50.7439C330.384 50.7474 330.384 50.7481 330.384 50.7519C330.361 51.3171 330.194 51.3035 329.926 51.5713C329.887 51.6108 329.695 51.7459 329.444 51.9007C329.193 52.0555 328.879 52.2458 328.528 52.447C327.827 52.8493 327.007 53.3146 326.335 53.7725H326.327C324.677 54.9039 324.084 55.4295 323.54 55.9737C322.766 56.7469 322.14 56.9699 320.937 56.9699C319.73 56.9699 319.299 56.743 318.976 56.4557H318.968C318.718 56.2379 318.287 55.4642 318.326 54.2706C318.358 53.069 318.762 51.8928 318.96 49.8682C319.048 48.9805 319.033 47.9126 319.033 46.9761C319.033 46.3859 319.039 45.8504 319.073 45.4577C319.09 45.2614 319.119 45.0942 319.145 44.9998C319.157 44.957 319.172 44.9428 319.177 44.9356C319.178 44.9348 319.177 44.9279 319.177 44.9275C319.445 44.7583 319.508 44.7246 319.732 44.7187Z" fill="#FE3F02"/>
<rect x="380" y="105.5" width="68" height="68" rx="34" fill="black"/>
<rect x="380" y="105.5" width="68" height="68" rx="34" stroke="#FE3F02" stroke-width="5"/>
<g clip-path="url(#clip1_2032_152)">
<path d="M423.895 141.409C423.541 141.409 423.194 141.304 422.9 141.109C422.605 140.913 422.376 140.635 422.24 140.309C422.104 139.984 422.069 139.626 422.138 139.28C422.207 138.935 422.378 138.617 422.628 138.368C422.879 138.119 423.198 137.949 423.546 137.881C423.893 137.812 424.253 137.847 424.581 137.982C424.908 138.117 425.188 138.345 425.385 138.638C425.582 138.931 425.687 139.275 425.687 139.628C425.687 140.1 425.498 140.553 425.162 140.887C424.826 141.221 424.37 141.409 423.895 141.409ZM404.105 141.409C403.75 141.409 403.404 141.304 403.109 141.109C402.815 140.913 402.585 140.635 402.449 140.309C402.314 139.984 402.278 139.626 402.348 139.28C402.417 138.935 402.587 138.617 402.838 138.368C403.088 138.119 403.408 137.949 403.755 137.881C404.103 137.812 404.463 137.847 404.79 137.982C405.118 138.117 405.398 138.345 405.594 138.638C405.791 138.931 405.896 139.275 405.896 139.628C405.896 140.1 405.708 140.553 405.372 140.887C405.036 141.221 404.58 141.409 404.105 141.409ZM424.537 130.686L428.116 124.526C428.173 124.441 428.212 124.346 428.23 124.246C428.249 124.146 428.247 124.044 428.223 123.945C428.2 123.846 428.157 123.752 428.096 123.671C428.036 123.589 427.959 123.521 427.87 123.47C427.782 123.419 427.684 123.387 427.582 123.375C427.481 123.363 427.378 123.372 427.28 123.402C427.182 123.431 427.092 123.48 427.014 123.546C426.936 123.611 426.872 123.692 426.827 123.783L423.203 130.023C420.309 128.732 417.172 128.065 414 128.065C410.828 128.065 407.691 128.732 404.797 130.023L401.173 123.783C401.128 123.692 401.064 123.611 400.986 123.546C400.908 123.48 400.818 123.431 400.72 123.402C400.622 123.372 400.519 123.363 400.418 123.375C400.316 123.387 400.218 123.419 400.13 123.47C400.041 123.521 399.964 123.589 399.904 123.671C399.843 123.752 399.8 123.846 399.777 123.945C399.753 124.044 399.751 124.146 399.77 124.246C399.788 124.346 399.827 124.441 399.884 124.526L403.463 130.686C397.317 134.009 393.115 140.193 392.5 147.5H435.5C434.885 140.193 430.682 134.009 424.537 130.686Z" fill="#FE3F02"/>
</g>
<rect x="178" y="105.5" width="68" height="68" rx="34" fill="black"/>
<rect x="178" y="105.5" width="68" height="68" rx="34" stroke="#FE3F02" stroke-width="5"/>
<g clip-path="url(#clip2_2032_152)">
<path d="M220.568 137.467C220.553 134.672 221.807 132.562 224.345 131.008C222.925 128.959 220.78 127.832 217.948 127.611C215.267 127.397 212.337 129.188 211.264 129.188C210.131 129.188 207.534 127.687 205.495 127.687C201.28 127.755 196.802 131.077 196.802 137.833C196.802 139.829 197.165 141.89 197.89 144.018C198.856 146.814 202.345 153.669 205.985 153.555C207.889 153.509 209.233 152.191 211.71 152.191C214.111 152.191 215.358 153.555 217.48 153.555C221.15 153.502 224.307 147.271 225.228 144.468C220.304 142.129 220.568 137.612 220.568 137.467ZM216.294 124.96C218.356 122.492 218.167 120.245 218.106 119.438C216.286 119.544 214.179 120.687 212.979 122.096C211.657 123.604 210.879 125.47 211.045 127.573C213.016 127.725 214.814 126.704 216.294 124.96Z" fill="#FE3F02"/>
</g>
<rect x="278" y="207.5" width="68" height="68" rx="34" fill="black"/>
<rect x="278" y="207.5" width="68" height="68" rx="34" stroke="#FE3F02" stroke-width="5"/>
<path d="M313.112 242.612H327.071V256.571H313.112V242.612ZM297.929 242.612H311.888V256.571H297.929V242.612ZM313.112 227.429H327.071V241.388H313.112V227.429ZM297.929 227.429H311.888V241.388H297.929V227.429Z" fill="#FE3F02"/>
</g>
<defs>
<filter id="filter0_f_2032_152" x="127.5" y="-45" width="370" height="370" filterUnits="userSpaceOnUse" color-interpolation-filters="sRGB">
<feFlood flood-opacity="0" result="BackgroundImageFix"/>
<feBlend mode="normal" in="SourceGraphic" in2="BackgroundImageFix" result="shape"/>
<feGaussianBlur stdDeviation="50" result="effect1_foregroundBlur_2032_152"/>
</filter>
<clipPath id="clip0_2032_152">
<rect width="625" height="280" fill="white"/>
</clipPath>
<clipPath id="clip1_2032_152">
<rect width="43" height="38" fill="white" transform="translate(392.5 119)"/>
</clipPath>
<clipPath id="clip2_2032_152">
<rect width="29" height="39" fill="white" transform="translate(196.5 117)"/>
</clipPath>
</defs>
</svg>
