<svg viewBox="175 0 276 279" fill="none" xmlns="http://www.w3.org/2000/svg">
<g clip-path="url(#clip0_13_344)">
<rect x="193" y="69.5" width="240" height="149" rx="14.5" stroke="#fe3e02" stroke-width="3" stroke-dasharray="6 6"/>
<path d="M203.494 57V46.0909H207.216V48.1648H207.33C207.557 47.483 207.945 46.9432 208.494 46.5455C209.044 46.1477 209.697 45.9489 210.455 45.9489C211.222 45.9489 211.882 46.1525 212.436 46.5597C212.99 46.9621 213.324 47.4972 213.438 48.1648H213.551C213.736 47.4972 214.129 46.9621 214.73 46.5597C215.331 46.1525 216.037 45.9489 216.847 45.9489C217.893 45.9489 218.741 46.285 219.389 46.9574C220.043 47.6297 220.369 48.5246 220.369 49.642V57H216.449V50.6364C216.449 50.1581 216.328 49.7841 216.087 49.5142C215.845 49.2396 215.521 49.1023 215.114 49.1023C214.711 49.1023 214.392 49.2396 214.155 49.5142C213.923 49.7841 213.807 50.1581 213.807 50.6364V57H210.057V50.6364C210.057 50.1581 209.936 49.7841 209.695 49.5142C209.453 49.2396 209.129 49.1023 208.722 49.1023C208.452 49.1023 208.22 49.1638 208.026 49.2869C207.831 49.41 207.68 49.5876 207.571 49.8196C207.467 50.0469 207.415 50.3191 207.415 50.6364V57H203.494ZM224.299 61.0909C223.849 61.0909 223.42 61.0554 223.013 60.9844C222.606 60.9181 222.248 60.8258 221.941 60.7074L222.793 57.9233C223.115 58.0369 223.408 58.1103 223.674 58.1435C223.944 58.1766 224.173 58.1577 224.363 58.0866C224.557 58.0156 224.696 57.8807 224.782 57.6818L224.867 57.483L221.032 46.0909H225.123L226.884 53.6477H226.998L228.787 46.0909H232.907L228.929 57.9091C228.73 58.5104 228.442 59.0502 228.063 59.5284C227.689 60.0114 227.196 60.3925 226.586 60.6719C225.975 60.9512 225.212 61.0909 224.299 61.0909ZM241.303 57V59.7841H231.445V57H241.303ZM243.221 61.0909V46.0909H247.113V47.9943H247.198C247.34 47.625 247.549 47.2865 247.823 46.9787C248.098 46.6662 248.439 46.4176 248.846 46.233C249.253 46.0436 249.727 45.9489 250.266 45.9489C250.986 45.9489 251.67 46.1406 252.319 46.5241C252.972 46.9077 253.503 47.5114 253.91 48.3352C254.322 49.1591 254.528 50.2292 254.528 51.5455C254.528 52.8049 254.331 53.849 253.938 54.6776C253.55 55.5062 253.029 56.1241 252.376 56.5312C251.727 56.9384 251.014 57.142 250.238 57.142C249.727 57.142 249.27 57.0592 248.867 56.8935C248.469 56.723 248.129 56.4934 247.844 56.2045C247.565 55.911 247.35 55.5795 247.198 55.2102H247.141V61.0909H243.221ZM247.056 51.5455C247.056 52.0758 247.125 52.535 247.262 52.9233C247.404 53.3068 247.603 53.6051 247.859 53.8182C248.119 54.0265 248.429 54.1307 248.789 54.1307C249.149 54.1307 249.454 54.0289 249.705 53.8253C249.961 53.617 250.155 53.321 250.288 52.9375C250.425 52.5492 250.494 52.0852 250.494 51.5455C250.494 51.0057 250.425 50.544 250.288 50.1605C250.155 49.7723 249.961 49.4763 249.705 49.2727C249.454 49.0644 249.149 48.9602 248.789 48.9602C248.429 48.9602 248.119 49.0644 247.859 49.2727C247.603 49.4763 247.404 49.7723 247.262 50.1605C247.125 50.544 247.056 51.0057 247.056 51.5455ZM260.091 42.4545V57H256.17V42.4545H260.091ZM265.128 57.1705C264.432 57.1705 263.816 57.0568 263.281 56.8295C262.751 56.5975 262.334 56.2472 262.031 55.7784C261.728 55.3097 261.577 54.7131 261.577 53.9886C261.577 53.392 261.679 52.883 261.882 52.4616C262.086 52.0355 262.37 51.6875 262.734 51.4176C263.099 51.1477 263.523 50.9418 264.006 50.7997C264.493 50.6577 265.019 50.5653 265.582 50.5227C266.193 50.4754 266.683 50.4186 267.053 50.3523C267.427 50.2812 267.696 50.1842 267.862 50.0611C268.028 49.9332 268.111 49.7652 268.111 49.5568V49.5284C268.111 49.2443 268.002 49.0265 267.784 48.875C267.566 48.7235 267.287 48.6477 266.946 48.6477C266.572 48.6477 266.267 48.7306 266.03 48.8963C265.798 49.0573 265.658 49.3059 265.611 49.642H262.003C262.05 48.9792 262.261 48.3684 262.635 47.8097C263.014 47.2462 263.565 46.7964 264.29 46.4602C265.014 46.1193 265.919 45.9489 267.003 45.9489C267.784 45.9489 268.485 46.0412 269.105 46.2259C269.725 46.4058 270.253 46.6591 270.689 46.9858C271.125 47.3078 271.456 47.6866 271.683 48.1222C271.915 48.553 272.031 49.0218 272.031 49.5284V57H268.366V55.4659H268.281C268.063 55.8731 267.798 56.2022 267.486 56.4531C267.178 56.7041 266.825 56.8864 266.428 57C266.035 57.1136 265.601 57.1705 265.128 57.1705ZM266.406 54.6989C266.705 54.6989 266.984 54.6373 267.244 54.5142C267.509 54.3911 267.725 54.2135 267.891 53.9815C268.056 53.7495 268.139 53.4678 268.139 53.1364V52.2273C268.035 52.2699 267.924 52.3101 267.805 52.348C267.692 52.3859 267.569 52.4214 267.436 52.4545C267.308 52.4877 267.171 52.5185 267.024 52.5469C266.882 52.5753 266.733 52.6013 266.577 52.625C266.274 52.6723 266.025 52.7505 265.831 52.8594C265.642 52.9635 265.5 53.0938 265.405 53.25C265.315 53.4015 265.27 53.572 265.27 53.7614C265.27 54.0644 265.376 54.2964 265.589 54.4574C265.803 54.6184 266.075 54.6989 266.406 54.6989ZM275.9 61.0909C275.45 61.0909 275.022 61.0554 274.615 60.9844C274.208 60.9181 273.85 60.8258 273.542 60.7074L274.395 57.9233C274.717 58.0369 275.01 58.1103 275.275 58.1435C275.545 58.1766 275.775 58.1577 275.964 58.0866C276.158 58.0156 276.298 57.8807 276.383 57.6818L276.468 57.483L272.633 46.0909H276.724L278.485 53.6477H278.599L280.389 46.0909H284.508L280.531 57.9091C280.332 58.5104 280.043 59.0502 279.664 59.5284C279.29 60.0114 278.798 60.3925 278.187 60.6719C277.576 60.9512 276.814 61.0909 275.9 61.0909ZM290.518 57.1989C289.354 57.1989 288.35 56.9763 287.507 56.5312C286.669 56.0814 286.023 55.4375 285.568 54.5994C285.118 53.7566 284.893 52.7481 284.893 51.5739C284.893 50.447 285.121 49.4621 285.575 48.6193C286.03 47.7765 286.671 47.1207 287.5 46.652C288.329 46.1832 289.306 45.9489 290.433 45.9489C291.257 45.9489 292.003 46.0767 292.67 46.3324C293.338 46.5881 293.909 46.9598 294.382 47.4474C294.856 47.9304 295.22 48.5175 295.476 49.2088C295.732 49.9001 295.859 50.679 295.859 51.5455V52.4545H286.115V50.2955H292.251C292.247 49.983 292.166 49.7083 292.01 49.4716C291.858 49.2301 291.652 49.0431 291.392 48.9105C291.136 48.7732 290.845 48.7045 290.518 48.7045C290.201 48.7045 289.91 48.7732 289.645 48.9105C289.38 49.0431 289.167 49.2277 289.006 49.4645C288.849 49.7012 288.767 49.9782 288.757 50.2955V52.625C288.757 52.9754 288.83 53.2879 288.977 53.5625C289.124 53.8371 289.335 54.0526 289.609 54.2088C289.884 54.3651 290.215 54.4432 290.604 54.4432C290.874 54.4432 291.12 54.4053 291.342 54.3295C291.57 54.2538 291.764 54.1449 291.925 54.0028C292.086 53.8561 292.204 53.6809 292.28 53.4773H295.859C295.736 54.2348 295.445 54.893 294.986 55.4517C294.527 56.0057 293.918 56.4366 293.161 56.7443C292.408 57.0473 291.527 57.1989 290.518 57.1989ZM297.459 57V46.0909H301.266V48.1648H301.38C301.578 47.3977 301.893 46.8366 302.324 46.4815C302.76 46.1264 303.269 45.9489 303.851 45.9489C304.022 45.9489 304.19 45.9631 304.355 45.9915C304.526 46.0152 304.689 46.0507 304.846 46.098V49.4432C304.651 49.3769 304.412 49.3272 304.128 49.294C303.844 49.2609 303.6 49.2443 303.397 49.2443C303.013 49.2443 302.667 49.3319 302.36 49.5071C302.057 49.6776 301.818 49.919 301.642 50.2315C301.467 50.5393 301.38 50.9015 301.38 51.3182V57H297.459ZM307.012 57.2273C306.462 57.2273 305.991 57.0355 305.598 56.652C305.21 56.2637 305.018 55.7926 305.023 55.2386C305.018 54.6989 305.21 54.2372 305.598 53.8537C305.991 53.4702 306.462 53.2784 307.012 53.2784C307.533 53.2784 307.992 53.4702 308.39 53.8537C308.792 54.2372 308.996 54.6989 309 55.2386C308.996 55.608 308.899 55.9441 308.709 56.2472C308.525 56.5455 308.283 56.7846 307.985 56.9645C307.686 57.1397 307.362 57.2273 307.012 57.2273ZM317.637 46.0909V48.9318H310.449V46.0909H317.637ZM311.841 43.4773H315.762V53.4915C315.762 53.643 315.788 53.7708 315.84 53.875C315.892 53.9744 315.972 54.0502 316.081 54.1023C316.19 54.1496 316.33 54.1733 316.5 54.1733C316.619 54.1733 316.756 54.1591 316.912 54.1307C317.073 54.1023 317.192 54.0786 317.267 54.0597L317.836 56.8153C317.66 56.8674 317.409 56.9313 317.083 57.0071C316.761 57.0829 316.377 57.1326 315.932 57.1562C315.033 57.2036 314.277 57.1113 313.667 56.8793C313.056 56.6425 312.596 56.2708 312.289 55.7642C311.981 55.2576 311.832 54.6231 311.841 53.8608V43.4773ZM329.091 49.642H325.483C325.464 49.4195 325.386 49.2277 325.249 49.0668C325.111 48.9058 324.934 48.7827 324.716 48.6974C324.503 48.6075 324.266 48.5625 324.006 48.5625C323.67 48.5625 323.381 48.6241 323.139 48.7472C322.898 48.8703 322.779 49.0455 322.784 49.2727C322.779 49.4337 322.848 49.5829 322.99 49.7202C323.137 49.8575 323.419 49.964 323.835 50.0398L326.051 50.4375C327.169 50.6411 328 50.9844 328.544 51.4673C329.093 51.9455 329.37 52.5871 329.375 53.392C329.37 54.1686 329.138 54.8433 328.679 55.4162C328.224 55.9844 327.602 56.4247 326.811 56.7372C326.025 57.045 325.128 57.1989 324.119 57.1989C322.453 57.1989 321.148 56.858 320.206 56.1761C319.268 55.4943 318.745 54.5947 318.636 53.4773H322.528C322.58 53.8229 322.751 54.0904 323.04 54.2798C323.333 54.4645 323.703 54.5568 324.148 54.5568C324.508 54.5568 324.804 54.4953 325.036 54.3722C325.272 54.2491 325.393 54.0739 325.398 53.8466C325.393 53.6383 325.289 53.4725 325.085 53.3494C324.886 53.2263 324.574 53.1269 324.148 53.0511L322.216 52.7102C321.103 52.5161 320.27 52.1468 319.716 51.6023C319.162 51.0578 318.887 50.357 318.892 49.5C318.887 48.7424 319.086 48.1009 319.489 47.5753C319.896 47.045 320.476 46.6425 321.229 46.3679C321.986 46.0885 322.884 45.9489 323.92 45.9489C325.497 45.9489 326.74 46.2756 327.649 46.929C328.563 47.5824 329.044 48.4867 329.091 49.642ZM336.133 57.1989C334.949 57.1989 333.936 56.9645 333.093 56.4957C332.25 56.0223 331.604 55.3641 331.154 54.5213C330.704 53.6738 330.479 52.6913 330.479 51.5739C330.479 50.4564 330.704 49.4763 331.154 48.6335C331.604 47.786 332.25 47.1278 333.093 46.6591C333.936 46.1856 334.949 45.9489 336.133 45.9489C337.203 45.9489 338.129 46.143 338.91 46.5312C339.696 46.9148 340.304 47.4593 340.735 48.1648C341.166 48.8655 341.384 49.6894 341.388 50.6364H337.752C337.7 50.0634 337.534 49.6278 337.255 49.3295C336.98 49.0265 336.625 48.875 336.19 48.875C335.849 48.875 335.55 48.9744 335.295 49.1733C335.039 49.3674 334.84 49.6634 334.698 50.0611C334.556 50.4541 334.485 50.9489 334.485 51.5455C334.485 52.142 334.556 52.6392 334.698 53.0369C334.84 53.4299 335.039 53.7259 335.295 53.9247C335.55 54.1188 335.849 54.2159 336.19 54.2159C336.478 54.2159 336.734 54.1496 336.957 54.017C337.179 53.8797 337.359 53.6809 337.496 53.4205C337.638 53.1553 337.724 52.8333 337.752 52.4545H341.388C341.374 53.4157 341.154 54.2538 340.728 54.9688C340.302 55.679 339.698 56.2282 338.917 56.6165C338.14 57.0047 337.212 57.1989 336.133 57.1989ZM346.926 50.8636V57H343.006V46.0909H346.728V48.1648H346.841C347.078 47.4735 347.495 46.9313 348.091 46.5384C348.693 46.1454 349.393 45.9489 350.194 45.9489C350.965 45.9489 351.635 46.1264 352.203 46.4815C352.776 46.8319 353.219 47.3149 353.532 47.9304C353.849 48.5459 354.005 49.2491 354 50.0398V57H350.08V50.8636C350.085 50.3239 349.947 49.9001 349.668 49.5923C349.393 49.2846 349.01 49.1307 348.517 49.1307C348.195 49.1307 347.914 49.2017 347.672 49.3438C347.435 49.4811 347.253 49.6799 347.125 49.9403C346.998 50.196 346.931 50.5038 346.926 50.8636Z" fill="#fe3e02"/>
<g clip-path="url(#clip1_13_344)">
<path d="M225.5 124L225.5 177" stroke="#fe3e02" stroke-width="3" stroke-linecap="round"/>
<path d="M226.5 140H234.5" stroke="#fe3e02" stroke-width="3" stroke-linecap="round"/>
<path d="M225.5 177H234.5" stroke="#fe3e02" stroke-width="3" stroke-linecap="round"/>
<g clip-path="url(#clip2_13_344)">
<path d="M223.238 95.5C222.84 95.5 222.459 95.658 222.177 95.9393C221.896 96.2206 221.738 96.6022 221.738 97V101.5C221.738 101.898 221.896 102.279 222.177 102.561C222.459 102.842 222.84 103 223.238 103H224.738V104.485C224.576 104.49 224.416 104.522 224.264 104.578L221.187 105.604L220.161 102.528C220.036 102.15 219.766 101.838 219.41 101.66C219.054 101.481 218.642 101.452 218.265 101.577C217.887 101.703 217.575 101.973 217.397 102.329C217.219 102.685 217.189 103.096 217.314 103.474L218.814 107.974C218.877 108.161 218.975 108.334 219.104 108.483C219.233 108.632 219.39 108.754 219.567 108.842C219.743 108.93 219.935 108.983 220.131 108.997C220.328 109.011 220.525 108.986 220.712 108.924L223.238 108.083V108.998C223.238 109.06 223.266 109.112 223.274 109.172L216.405 113.75C216.074 113.971 215.845 114.315 215.767 114.705C215.689 115.095 215.769 115.5 215.99 115.831C216.211 116.162 216.554 116.392 216.944 116.47C217.334 116.548 217.739 116.467 218.07 116.247L225.654 111.192L227.897 115.67C228.058 115.993 228.331 116.247 228.664 116.386C228.997 116.524 229.369 116.537 229.712 116.424L234.212 114.924C234.403 114.865 234.58 114.768 234.733 114.64C234.886 114.511 235.012 114.354 235.104 114.176C235.195 113.998 235.25 113.804 235.265 113.605C235.28 113.406 235.256 113.206 235.193 113.016C235.129 112.827 235.029 112.652 234.897 112.501C234.766 112.351 234.605 112.229 234.426 112.141C234.246 112.054 234.051 112.003 233.851 111.992C233.652 111.982 233.452 112.011 233.264 112.078L229.997 113.166L228.534 110.239C228.747 110.109 228.923 109.927 229.047 109.71C229.17 109.493 229.235 109.248 229.238 108.998V107.5H231.312L232.395 109.672C232.484 109.848 232.606 110.006 232.755 110.135C232.903 110.264 233.076 110.362 233.263 110.425C233.45 110.487 233.648 110.512 233.844 110.498C234.041 110.484 234.233 110.431 234.409 110.343C234.586 110.255 234.743 110.133 234.872 109.984C235.001 109.835 235.1 109.662 235.162 109.475C235.224 109.288 235.249 109.091 235.235 108.894C235.221 108.698 235.169 108.506 235.08 108.33L233.58 105.33C233.456 105.08 233.264 104.87 233.027 104.724C232.79 104.577 232.517 104.5 232.238 104.5H227.738V103H229.238C229.636 103 230.017 102.842 230.299 102.561C230.58 102.279 230.738 101.898 230.738 101.5V97C230.738 96.6022 230.58 96.2206 230.299 95.9393C230.017 95.658 229.636 95.5 229.238 95.5H223.238ZM223.238 98.5H224.738V101.5H223.238V98.5Z" fill="#8DA5F3"/>
<path d="M257.369 104.883H255.191C255.151 104.601 255.07 104.351 254.947 104.132C254.825 103.91 254.667 103.721 254.475 103.565C254.283 103.41 254.061 103.29 253.809 103.207C253.56 103.125 253.29 103.083 252.999 103.083C252.472 103.083 252.013 103.214 251.621 103.476C251.23 103.734 250.927 104.112 250.712 104.609C250.496 105.103 250.388 105.703 250.388 106.409C250.388 107.135 250.496 107.745 250.712 108.239C250.93 108.732 251.235 109.105 251.626 109.357C252.018 109.609 252.47 109.735 252.984 109.735C253.272 109.735 253.539 109.697 253.784 109.621C254.033 109.545 254.253 109.433 254.445 109.288C254.638 109.138 254.797 108.958 254.923 108.746C255.052 108.534 255.141 108.292 255.191 108.02L257.369 108.03C257.312 108.497 257.171 108.948 256.946 109.382C256.724 109.813 256.424 110.199 256.046 110.54C255.672 110.879 255.224 111.147 254.704 111.346C254.187 111.541 253.602 111.639 252.949 111.639C252.041 111.639 251.229 111.434 250.513 111.023C249.8 110.612 249.237 110.017 248.822 109.238C248.411 108.459 248.206 107.516 248.206 106.409C248.206 105.299 248.415 104.354 248.832 103.575C249.25 102.796 249.817 102.203 250.533 101.795C251.249 101.384 252.054 101.179 252.949 101.179C253.539 101.179 254.086 101.262 254.589 101.428C255.097 101.593 255.546 101.835 255.937 102.153C256.328 102.468 256.646 102.854 256.891 103.312C257.14 103.769 257.299 104.293 257.369 104.883ZM260.99 107.085V111.5H258.873V101.318H260.931V105.211H261.02C261.193 104.76 261.471 104.407 261.855 104.152C262.24 103.893 262.722 103.764 263.302 103.764C263.833 103.764 264.295 103.88 264.689 104.112C265.087 104.341 265.395 104.671 265.614 105.102C265.836 105.529 265.945 106.041 265.942 106.638V111.5H263.824V107.016C263.828 106.545 263.708 106.179 263.466 105.917C263.228 105.655 262.893 105.524 262.462 105.524C262.174 105.524 261.918 105.585 261.696 105.708C261.478 105.831 261.305 106.01 261.179 106.245C261.057 106.477 260.994 106.757 260.99 107.085ZM269.786 111.644C269.299 111.644 268.865 111.56 268.484 111.391C268.103 111.218 267.801 110.965 267.579 110.63C267.36 110.292 267.251 109.871 267.251 109.367C267.251 108.943 267.329 108.587 267.485 108.298C267.64 108.01 267.852 107.778 268.121 107.602C268.389 107.427 268.694 107.294 269.036 107.205C269.38 107.115 269.742 107.052 270.119 107.016C270.564 106.969 270.922 106.926 271.193 106.886C271.465 106.843 271.662 106.78 271.785 106.697C271.908 106.615 271.969 106.492 271.969 106.33V106.3C271.969 105.985 271.869 105.741 271.671 105.569C271.475 105.397 271.197 105.31 270.835 105.31C270.454 105.31 270.151 105.395 269.926 105.564C269.7 105.73 269.551 105.938 269.478 106.19L267.519 106.031C267.619 105.567 267.814 105.166 268.106 104.828C268.398 104.487 268.774 104.225 269.235 104.043C269.699 103.857 270.235 103.764 270.845 103.764C271.27 103.764 271.676 103.814 272.063 103.913C272.454 104.013 272.801 104.167 273.102 104.376C273.407 104.585 273.648 104.853 273.823 105.181C273.999 105.506 274.087 105.895 274.087 106.349V111.5H272.078V110.441H272.019C271.896 110.68 271.732 110.89 271.526 111.072C271.321 111.251 271.074 111.392 270.786 111.495C270.497 111.594 270.164 111.644 269.786 111.644ZM270.393 110.183C270.704 110.183 270.98 110.121 271.218 109.999C271.457 109.873 271.644 109.704 271.78 109.491C271.916 109.279 271.984 109.039 271.984 108.771V107.96C271.918 108.003 271.826 108.043 271.71 108.08C271.598 108.113 271.47 108.144 271.328 108.174C271.185 108.201 271.043 108.225 270.9 108.249C270.758 108.268 270.628 108.287 270.512 108.303C270.264 108.34 270.047 108.398 269.861 108.477C269.675 108.557 269.531 108.665 269.428 108.8C269.326 108.933 269.274 109.099 269.274 109.298C269.274 109.586 269.379 109.806 269.588 109.959C269.8 110.108 270.068 110.183 270.393 110.183ZM275.73 111.5V103.864H277.783V105.196H277.863C278.002 104.722 278.236 104.364 278.564 104.122C278.892 103.877 279.27 103.754 279.697 103.754C279.803 103.754 279.918 103.761 280.04 103.774C280.163 103.787 280.271 103.806 280.363 103.829V105.708C280.264 105.678 280.126 105.652 279.951 105.629C279.775 105.605 279.614 105.594 279.469 105.594C279.157 105.594 278.879 105.662 278.633 105.798C278.391 105.93 278.199 106.116 278.057 106.354C277.917 106.593 277.848 106.868 277.848 107.18V111.5H275.73ZM283.417 111.644C282.93 111.644 282.496 111.56 282.115 111.391C281.734 111.218 281.432 110.965 281.21 110.63C280.991 110.292 280.882 109.871 280.882 109.367C280.882 108.943 280.96 108.587 281.115 108.298C281.271 108.01 281.483 107.778 281.752 107.602C282.02 107.427 282.325 107.294 282.667 107.205C283.011 107.115 283.373 107.052 283.75 107.016C284.194 106.969 284.552 106.926 284.824 106.886C285.096 106.843 285.293 106.78 285.416 106.697C285.538 106.615 285.6 106.492 285.6 106.33V106.3C285.6 105.985 285.5 105.741 285.301 105.569C285.106 105.397 284.828 105.31 284.466 105.31C284.085 105.31 283.782 105.395 283.556 105.564C283.331 105.73 283.182 105.938 283.109 106.19L281.15 106.031C281.25 105.567 281.445 105.166 281.737 104.828C282.029 104.487 282.405 104.225 282.865 104.043C283.329 103.857 283.866 103.764 284.476 103.764C284.9 103.764 285.306 103.814 285.694 103.913C286.085 104.013 286.432 104.167 286.733 104.376C287.038 104.585 287.279 104.853 287.454 105.181C287.63 105.506 287.718 105.895 287.718 106.349V111.5H285.709V110.441H285.65C285.527 110.68 285.363 110.89 285.157 111.072C284.952 111.251 284.705 111.392 284.417 111.495C284.128 111.594 283.795 111.644 283.417 111.644ZM284.024 110.183C284.335 110.183 284.61 110.121 284.849 109.999C285.088 109.873 285.275 109.704 285.411 109.491C285.547 109.279 285.615 109.039 285.615 108.771V107.96C285.548 108.003 285.457 108.043 285.341 108.08C285.229 108.113 285.101 108.144 284.958 108.174C284.816 108.201 284.673 108.225 284.531 108.249C284.388 108.268 284.259 108.287 284.143 108.303C283.895 108.34 283.677 108.398 283.492 108.477C283.306 108.557 283.162 108.665 283.059 108.8C282.957 108.933 282.905 109.099 282.905 109.298C282.905 109.586 283.01 109.806 283.218 109.959C283.431 110.108 283.699 110.183 284.024 110.183ZM292.811 111.649C292.029 111.649 291.356 111.483 290.793 111.152C290.232 110.817 289.802 110.353 289.5 109.76C289.202 109.167 289.053 108.484 289.053 107.712C289.053 106.929 289.203 106.243 289.505 105.653C289.81 105.06 290.242 104.598 290.803 104.266C291.363 103.932 292.029 103.764 292.801 103.764C293.467 103.764 294.051 103.885 294.551 104.127C295.052 104.369 295.448 104.709 295.739 105.146C296.031 105.584 296.192 106.098 296.222 106.688H294.223C294.167 106.306 294.018 106 293.776 105.768C293.537 105.532 293.224 105.415 292.836 105.415C292.508 105.415 292.221 105.504 291.976 105.683C291.734 105.859 291.545 106.116 291.409 106.454C291.273 106.792 291.205 107.201 291.205 107.682C291.205 108.169 291.272 108.583 291.404 108.925C291.54 109.266 291.731 109.526 291.976 109.705C292.221 109.884 292.508 109.974 292.836 109.974C293.078 109.974 293.295 109.924 293.487 109.825C293.683 109.725 293.844 109.581 293.969 109.392C294.099 109.2 294.183 108.969 294.223 108.701H296.222C296.188 109.284 296.029 109.798 295.744 110.242C295.463 110.683 295.073 111.028 294.576 111.276C294.079 111.525 293.491 111.649 292.811 111.649ZM301.639 103.864V105.455H297.041V103.864H301.639ZM298.085 102.034H300.203V109.153C300.203 109.349 300.232 109.501 300.292 109.611C300.352 109.717 300.435 109.791 300.541 109.835C300.65 109.878 300.776 109.899 300.919 109.899C301.018 109.899 301.117 109.891 301.217 109.874C301.316 109.854 301.392 109.839 301.445 109.83L301.779 111.406C301.673 111.439 301.523 111.477 301.331 111.52C301.139 111.566 300.905 111.594 300.63 111.604C300.12 111.624 299.672 111.556 299.288 111.401C298.907 111.245 298.61 111.003 298.398 110.675C298.186 110.347 298.081 109.932 298.085 109.432V102.034ZM306.417 111.649C305.632 111.649 304.955 111.49 304.389 111.172C303.825 110.85 303.391 110.396 303.086 109.81C302.781 109.22 302.629 108.522 302.629 107.717C302.629 106.931 302.781 106.242 303.086 105.648C303.391 105.055 303.82 104.593 304.374 104.261C304.931 103.93 305.584 103.764 306.333 103.764C306.836 103.764 307.305 103.845 307.74 104.008C308.177 104.167 308.558 104.407 308.883 104.729C309.211 105.05 309.466 105.455 309.649 105.942C309.831 106.426 309.922 106.992 309.922 107.642V108.224H303.474V106.911H307.928C307.928 106.606 307.862 106.336 307.73 106.101C307.597 105.866 307.413 105.682 307.178 105.549C306.946 105.413 306.676 105.345 306.367 105.345C306.046 105.345 305.761 105.42 305.512 105.569C305.267 105.715 305.075 105.912 304.936 106.161C304.796 106.406 304.725 106.679 304.722 106.981V108.229C304.722 108.607 304.791 108.933 304.931 109.208C305.073 109.483 305.274 109.695 305.532 109.844C305.791 109.994 306.097 110.068 306.452 110.068C306.687 110.068 306.903 110.035 307.098 109.969C307.294 109.902 307.461 109.803 307.6 109.67C307.74 109.538 307.846 109.375 307.919 109.183L309.877 109.312C309.778 109.783 309.574 110.194 309.266 110.545C308.961 110.893 308.566 111.165 308.083 111.361C307.602 111.553 307.047 111.649 306.417 111.649ZM311.304 111.5V103.864H313.357V105.196H313.437C313.576 104.722 313.81 104.364 314.138 104.122C314.466 103.877 314.844 103.754 315.271 103.754C315.378 103.754 315.492 103.761 315.615 103.774C315.737 103.787 315.845 103.806 315.938 103.829V105.708C315.838 105.678 315.701 105.652 315.525 105.629C315.349 105.605 315.189 105.594 315.043 105.594C314.731 105.594 314.453 105.662 314.208 105.798C313.966 105.93 313.773 106.116 313.631 106.354C313.492 106.593 313.422 106.868 313.422 107.18V111.5H311.304ZM317.072 111.5V101.318H321.149C321.898 101.318 322.523 101.429 323.023 101.651C323.524 101.873 323.9 102.182 324.152 102.576C324.404 102.967 324.53 103.418 324.53 103.928C324.53 104.326 324.45 104.676 324.291 104.977C324.132 105.276 323.913 105.521 323.635 105.713C323.36 105.902 323.045 106.036 322.69 106.116V106.215C323.078 106.232 323.441 106.341 323.779 106.543C324.121 106.746 324.397 107.029 324.609 107.393C324.821 107.755 324.928 108.186 324.928 108.686C324.928 109.226 324.793 109.709 324.525 110.133C324.26 110.554 323.867 110.887 323.347 111.132C322.826 111.377 322.185 111.5 321.423 111.5H317.072ZM319.225 109.74H320.98C321.58 109.74 322.018 109.626 322.293 109.397C322.568 109.165 322.705 108.857 322.705 108.472C322.705 108.191 322.637 107.942 322.501 107.727C322.366 107.511 322.172 107.342 321.92 107.219C321.671 107.097 321.375 107.036 321.03 107.036H319.225V109.74ZM319.225 105.579H320.821C321.116 105.579 321.378 105.527 321.607 105.425C321.839 105.319 322.021 105.17 322.153 104.977C322.289 104.785 322.357 104.555 322.357 104.286C322.357 103.918 322.226 103.622 321.964 103.396C321.706 103.171 321.338 103.058 320.861 103.058H319.225V105.579ZM329.739 111.649C328.967 111.649 328.299 111.485 327.735 111.157C327.175 110.826 326.743 110.365 326.438 109.775C326.133 109.182 325.98 108.494 325.98 107.712C325.98 106.923 326.133 106.233 326.438 105.643C326.743 105.05 327.175 104.589 327.735 104.261C328.299 103.93 328.967 103.764 329.739 103.764C330.511 103.764 331.177 103.93 331.737 104.261C332.301 104.589 332.735 105.05 333.04 105.643C333.345 106.233 333.497 106.923 333.497 107.712C333.497 108.494 333.345 109.182 333.04 109.775C332.735 110.365 332.301 110.826 331.737 111.157C331.177 111.485 330.511 111.649 329.739 111.649ZM329.749 110.009C330.1 110.009 330.393 109.909 330.629 109.71C330.864 109.508 331.041 109.233 331.161 108.885C331.283 108.537 331.345 108.141 331.345 107.697C331.345 107.253 331.283 106.857 331.161 106.509C331.041 106.161 330.864 105.885 330.629 105.683C330.393 105.481 330.1 105.38 329.749 105.38C329.394 105.38 329.096 105.481 328.854 105.683C328.615 105.885 328.435 106.161 328.312 106.509C328.193 106.857 328.133 107.253 328.133 107.697C328.133 108.141 328.193 108.537 328.312 108.885C328.435 109.233 328.615 109.508 328.854 109.71C329.096 109.909 329.394 110.009 329.749 110.009ZM337.688 111.624C337.108 111.624 336.583 111.475 336.112 111.177C335.645 110.875 335.274 110.433 334.999 109.849C334.727 109.263 334.591 108.544 334.591 107.692C334.591 106.817 334.732 106.089 335.014 105.509C335.295 104.926 335.67 104.49 336.137 104.202C336.608 103.91 337.123 103.764 337.683 103.764C338.111 103.764 338.467 103.837 338.752 103.983C339.041 104.125 339.273 104.304 339.448 104.52C339.627 104.732 339.763 104.941 339.856 105.146H339.921V101.318H342.034V111.5H339.945V110.277H339.856C339.757 110.489 339.616 110.7 339.433 110.908C339.254 111.114 339.021 111.285 338.732 111.42C338.447 111.556 338.099 111.624 337.688 111.624ZM338.36 109.939C338.701 109.939 338.989 109.846 339.225 109.661C339.463 109.472 339.646 109.208 339.771 108.87C339.901 108.532 339.965 108.136 339.965 107.682C339.965 107.228 339.902 106.833 339.776 106.499C339.651 106.164 339.468 105.905 339.23 105.723C338.991 105.541 338.701 105.45 338.36 105.45C338.012 105.45 337.718 105.544 337.48 105.733C337.241 105.922 337.06 106.184 336.938 106.518C336.815 106.853 336.754 107.241 336.754 107.682C336.754 108.126 336.815 108.519 336.938 108.86C337.064 109.198 337.244 109.463 337.48 109.656C337.718 109.844 338.012 109.939 338.36 109.939ZM345.082 114.364C344.814 114.364 344.562 114.342 344.327 114.299C344.095 114.259 343.902 114.208 343.75 114.145L344.227 112.564C344.476 112.64 344.7 112.682 344.898 112.688C345.101 112.695 345.275 112.648 345.42 112.549C345.57 112.45 345.691 112.281 345.783 112.042L345.908 111.719L343.168 103.864H345.396L346.977 109.472H347.056L348.652 103.864H350.894L347.926 112.325C347.784 112.736 347.59 113.094 347.344 113.399C347.103 113.707 346.796 113.944 346.425 114.11C346.054 114.279 345.606 114.364 345.082 114.364ZM351.958 111.5V109.949L355.582 106.593C355.891 106.295 356.149 106.026 356.358 105.788C356.57 105.549 356.731 105.315 356.84 105.087C356.95 104.855 357.004 104.604 357.004 104.336C357.004 104.038 356.936 103.781 356.8 103.565C356.665 103.347 356.479 103.179 356.244 103.063C356.008 102.944 355.741 102.884 355.443 102.884C355.132 102.884 354.86 102.947 354.628 103.073C354.396 103.199 354.217 103.38 354.091 103.615C353.965 103.85 353.902 104.13 353.902 104.455H351.859C351.859 103.789 352.009 103.211 352.311 102.72C352.613 102.23 353.035 101.85 353.579 101.582C354.122 101.313 354.749 101.179 355.458 101.179C356.187 101.179 356.822 101.308 357.362 101.567C357.906 101.822 358.328 102.177 358.63 102.631C358.932 103.085 359.082 103.605 359.082 104.192C359.082 104.576 359.006 104.956 358.854 105.33C358.705 105.705 358.438 106.121 358.053 106.578C357.669 107.032 357.127 107.577 356.428 108.214L354.941 109.67V109.74H359.217V111.5H351.958ZM364.445 111.5H360.836V101.318H364.475C365.499 101.318 366.381 101.522 367.12 101.93C367.859 102.334 368.428 102.916 368.825 103.675C369.227 104.434 369.427 105.342 369.427 106.399C369.427 107.46 369.227 108.371 368.825 109.134C368.428 109.896 367.856 110.481 367.11 110.888C366.368 111.296 365.48 111.5 364.445 111.5ZM362.989 109.656H364.356C364.992 109.656 365.528 109.543 365.962 109.317C366.399 109.089 366.727 108.736 366.946 108.259C367.168 107.778 367.279 107.158 367.279 106.399C367.279 105.647 367.168 105.032 366.946 104.555C366.727 104.077 366.401 103.726 365.967 103.501C365.533 103.275 364.997 103.163 364.361 103.163H362.989V109.656Z" fill="#8DA5F3"/>
</g>
<g clip-path="url(#clip3_13_344)">
<path d="M260.5 149H242.5V131H260.5V149Z" stroke="#8DA5F3" stroke-width="2" stroke-linejoin="round"/>
<path d="M283.369 138.883H281.191C281.151 138.601 281.07 138.351 280.947 138.132C280.825 137.91 280.667 137.721 280.475 137.565C280.283 137.41 280.061 137.29 279.809 137.207C279.56 137.125 279.29 137.083 278.999 137.083C278.472 137.083 278.013 137.214 277.621 137.476C277.23 137.734 276.927 138.112 276.712 138.609C276.496 139.103 276.388 139.703 276.388 140.409C276.388 141.135 276.496 141.745 276.712 142.239C276.93 142.732 277.235 143.105 277.626 143.357C278.018 143.609 278.47 143.735 278.984 143.735C279.272 143.735 279.539 143.697 279.784 143.621C280.033 143.545 280.253 143.433 280.445 143.288C280.638 143.138 280.797 142.958 280.923 142.746C281.052 142.534 281.141 142.292 281.191 142.02L283.369 142.03C283.312 142.497 283.171 142.948 282.946 143.382C282.724 143.813 282.424 144.199 282.046 144.54C281.672 144.879 281.224 145.147 280.704 145.346C280.187 145.541 279.602 145.639 278.949 145.639C278.041 145.639 277.229 145.434 276.513 145.023C275.8 144.612 275.237 144.017 274.822 143.238C274.411 142.459 274.206 141.516 274.206 140.409C274.206 139.299 274.415 138.354 274.832 137.575C275.25 136.796 275.817 136.203 276.533 135.795C277.249 135.384 278.054 135.179 278.949 135.179C279.539 135.179 280.086 135.262 280.589 135.428C281.097 135.593 281.546 135.835 281.937 136.153C282.328 136.468 282.646 136.854 282.891 137.312C283.14 137.769 283.299 138.293 283.369 138.883ZM288.323 145.649C287.551 145.649 286.883 145.485 286.319 145.157C285.759 144.826 285.327 144.365 285.022 143.775C284.717 143.182 284.564 142.494 284.564 141.712C284.564 140.923 284.717 140.233 285.022 139.643C285.327 139.05 285.759 138.589 286.319 138.261C286.883 137.93 287.551 137.764 288.323 137.764C289.095 137.764 289.761 137.93 290.321 138.261C290.885 138.589 291.319 139.05 291.624 139.643C291.929 140.233 292.081 140.923 292.081 141.712C292.081 142.494 291.929 143.182 291.624 143.775C291.319 144.365 290.885 144.826 290.321 145.157C289.761 145.485 289.095 145.649 288.323 145.649ZM288.333 144.009C288.684 144.009 288.977 143.909 289.213 143.71C289.448 143.508 289.625 143.233 289.745 142.885C289.867 142.537 289.929 142.141 289.929 141.697C289.929 141.253 289.867 140.857 289.745 140.509C289.625 140.161 289.448 139.885 289.213 139.683C288.977 139.481 288.684 139.38 288.333 139.38C287.978 139.38 287.68 139.481 287.438 139.683C287.199 139.885 287.019 140.161 286.896 140.509C286.777 140.857 286.717 141.253 286.717 141.697C286.717 142.141 286.777 142.537 286.896 142.885C287.019 143.233 287.199 143.508 287.438 143.71C287.68 143.909 287.978 144.009 288.333 144.009ZM295.576 135.318V145.5H293.458V135.318H295.576ZM299.391 135.318V145.5H297.273V135.318H299.391ZM301.087 145.5V137.864H303.205V145.5H301.087ZM302.151 136.879C301.836 136.879 301.566 136.775 301.341 136.566C301.119 136.354 301.008 136.1 301.008 135.805C301.008 135.514 301.119 135.263 301.341 135.055C301.566 134.843 301.836 134.737 302.151 134.737C302.466 134.737 302.735 134.843 302.957 135.055C303.182 135.263 303.295 135.514 303.295 135.805C303.295 136.1 303.182 136.354 302.957 136.566C302.735 136.775 302.466 136.879 302.151 136.879ZM311.256 140.041L309.317 140.161C309.283 139.995 309.212 139.846 309.103 139.713C308.993 139.577 308.849 139.469 308.67 139.39C308.495 139.307 308.284 139.266 308.039 139.266C307.711 139.266 307.434 139.335 307.209 139.474C306.983 139.61 306.871 139.793 306.871 140.021C306.871 140.204 306.943 140.358 307.089 140.484C307.235 140.61 307.485 140.711 307.84 140.787L309.222 141.065C309.965 141.218 310.518 141.463 310.883 141.801C311.247 142.139 311.43 142.583 311.43 143.134C311.43 143.634 311.282 144.073 310.987 144.451C310.695 144.829 310.294 145.124 309.784 145.336C309.277 145.545 308.692 145.649 308.029 145.649C307.018 145.649 306.213 145.439 305.613 145.018C305.016 144.594 304.666 144.017 304.564 143.288L306.647 143.178C306.71 143.487 306.862 143.722 307.104 143.884C307.346 144.043 307.656 144.123 308.034 144.123C308.405 144.123 308.703 144.052 308.929 143.909C309.157 143.763 309.273 143.576 309.277 143.347C309.273 143.155 309.192 142.998 309.033 142.875C308.874 142.749 308.629 142.653 308.297 142.587L306.975 142.323C306.229 142.174 305.674 141.915 305.309 141.548C304.948 141.18 304.768 140.711 304.768 140.141C304.768 139.65 304.9 139.228 305.165 138.873C305.434 138.518 305.81 138.245 306.294 138.053C306.781 137.86 307.351 137.764 308.004 137.764C308.969 137.764 309.728 137.968 310.281 138.376C310.838 138.783 311.163 139.339 311.256 140.041ZM312.763 145.5V137.864H314.881V145.5H312.763ZM313.827 136.879C313.512 136.879 313.242 136.775 313.017 136.566C312.795 136.354 312.684 136.1 312.684 135.805C312.684 135.514 312.795 135.263 313.017 135.055C313.242 134.843 313.512 134.737 313.827 134.737C314.142 134.737 314.41 134.843 314.632 135.055C314.858 135.263 314.971 135.514 314.971 135.805C314.971 136.1 314.858 136.354 314.632 136.566C314.41 136.775 314.142 136.879 313.827 136.879ZM320.028 145.649C319.256 145.649 318.588 145.485 318.024 145.157C317.464 144.826 317.032 144.365 316.727 143.775C316.422 143.182 316.269 142.494 316.269 141.712C316.269 140.923 316.422 140.233 316.727 139.643C317.032 139.05 317.464 138.589 318.024 138.261C318.588 137.93 319.256 137.764 320.028 137.764C320.8 137.764 321.466 137.93 322.026 138.261C322.59 138.589 323.024 139.05 323.329 139.643C323.634 140.233 323.786 140.923 323.786 141.712C323.786 142.494 323.634 143.182 323.329 143.775C323.024 144.365 322.59 144.826 322.026 145.157C321.466 145.485 320.8 145.649 320.028 145.649ZM320.038 144.009C320.389 144.009 320.682 143.909 320.918 143.71C321.153 143.508 321.33 143.233 321.45 142.885C321.572 142.537 321.634 142.141 321.634 141.697C321.634 141.253 321.572 140.857 321.45 140.509C321.33 140.161 321.153 139.885 320.918 139.683C320.682 139.481 320.389 139.38 320.038 139.38C319.683 139.38 319.385 139.481 319.143 139.683C318.904 139.885 318.724 140.161 318.601 140.509C318.482 140.857 318.422 141.253 318.422 141.697C318.422 142.141 318.482 142.537 318.601 142.885C318.724 143.233 318.904 143.508 319.143 143.71C319.385 143.909 319.683 144.009 320.038 144.009ZM327.281 141.085V145.5H325.164V137.864H327.182V139.211H327.271C327.441 138.767 327.724 138.415 328.122 138.157C328.519 137.895 329.002 137.764 329.568 137.764C330.099 137.764 330.561 137.88 330.955 138.112C331.35 138.344 331.656 138.676 331.875 139.107C332.094 139.534 332.203 140.045 332.203 140.638V145.5H330.085V141.016C330.089 140.548 329.969 140.184 329.727 139.922C329.485 139.657 329.152 139.524 328.728 139.524C328.443 139.524 328.191 139.585 327.972 139.708C327.757 139.831 327.588 140.01 327.465 140.245C327.346 140.477 327.285 140.757 327.281 141.085ZM339.436 138.246C339.396 137.845 339.225 137.534 338.924 137.312C338.622 137.09 338.213 136.979 337.696 136.979C337.344 136.979 337.048 137.028 336.806 137.128C336.564 137.224 336.378 137.358 336.249 137.531C336.123 137.703 336.06 137.898 336.06 138.117C336.053 138.299 336.092 138.459 336.174 138.594C336.261 138.73 336.378 138.848 336.527 138.947C336.676 139.044 336.849 139.128 337.044 139.201C337.24 139.271 337.449 139.33 337.671 139.38L338.586 139.599C339.03 139.698 339.437 139.831 339.809 139.996C340.18 140.162 340.501 140.366 340.773 140.608C341.045 140.85 341.255 141.135 341.404 141.463C341.557 141.791 341.635 142.167 341.638 142.592C341.635 143.215 341.476 143.755 341.161 144.212C340.849 144.666 340.399 145.019 339.809 145.271C339.222 145.52 338.514 145.644 337.686 145.644C336.864 145.644 336.148 145.518 335.538 145.266C334.931 145.014 334.458 144.642 334.116 144.148C333.778 143.651 333.601 143.036 333.584 142.303H335.667C335.69 142.645 335.788 142.93 335.961 143.158C336.136 143.384 336.37 143.554 336.662 143.67C336.957 143.783 337.29 143.839 337.661 143.839C338.025 143.839 338.342 143.786 338.61 143.68C338.882 143.574 339.093 143.427 339.242 143.238C339.391 143.049 339.466 142.832 339.466 142.587C339.466 142.358 339.398 142.166 339.262 142.01C339.129 141.854 338.934 141.722 338.675 141.612C338.42 141.503 338.107 141.403 337.735 141.314L336.627 141.036C335.768 140.827 335.091 140.5 334.593 140.056C334.096 139.612 333.849 139.014 333.853 138.261C333.849 137.645 334.013 137.106 334.345 136.646C334.68 136.185 335.139 135.825 335.722 135.567C336.305 135.308 336.968 135.179 337.711 135.179C338.466 135.179 339.126 135.308 339.689 135.567C340.256 135.825 340.697 136.185 341.012 136.646C341.327 137.106 341.489 137.64 341.499 138.246H339.436ZM345.164 141.085V145.5H343.046V135.318H345.105V139.211H345.194C345.366 138.76 345.645 138.407 346.029 138.152C346.414 137.893 346.896 137.764 347.476 137.764C348.006 137.764 348.469 137.88 348.863 138.112C349.261 138.341 349.569 138.671 349.788 139.102C350.01 139.529 350.119 140.041 350.116 140.638V145.5H347.998V141.016C348.001 140.545 347.882 140.179 347.64 139.917C347.401 139.655 347.067 139.524 346.636 139.524C346.347 139.524 346.092 139.585 345.87 139.708C345.651 139.831 345.479 140.01 345.353 140.245C345.231 140.477 345.168 140.757 345.164 141.085ZM353.96 145.644C353.473 145.644 353.039 145.56 352.658 145.391C352.277 145.218 351.975 144.965 351.753 144.63C351.534 144.292 351.425 143.871 351.425 143.367C351.425 142.943 351.503 142.587 351.658 142.298C351.814 142.01 352.026 141.778 352.295 141.602C352.563 141.427 352.868 141.294 353.21 141.205C353.554 141.115 353.915 141.052 354.293 141.016C354.737 140.969 355.095 140.926 355.367 140.886C355.639 140.843 355.836 140.78 355.959 140.697C356.081 140.615 356.143 140.492 356.143 140.33V140.3C356.143 139.985 356.043 139.741 355.844 139.569C355.649 139.397 355.371 139.31 355.009 139.31C354.628 139.31 354.325 139.395 354.099 139.564C353.874 139.73 353.725 139.938 353.652 140.19L351.693 140.031C351.793 139.567 351.988 139.166 352.28 138.828C352.571 138.487 352.948 138.225 353.408 138.043C353.872 137.857 354.409 137.764 355.019 137.764C355.443 137.764 355.849 137.814 356.237 137.913C356.628 138.013 356.975 138.167 357.276 138.376C357.581 138.585 357.821 138.853 357.997 139.181C358.173 139.506 358.261 139.895 358.261 140.349V145.5H356.252V144.441H356.192C356.07 144.68 355.906 144.89 355.7 145.072C355.495 145.251 355.248 145.392 354.96 145.495C354.671 145.594 354.338 145.644 353.96 145.644ZM354.567 144.183C354.878 144.183 355.153 144.121 355.392 143.999C355.631 143.873 355.818 143.704 355.954 143.491C356.09 143.279 356.158 143.039 356.158 142.771V141.96C356.091 142.003 356 142.043 355.884 142.08C355.772 142.113 355.644 142.144 355.501 142.174C355.359 142.201 355.216 142.225 355.074 142.249C354.931 142.268 354.802 142.287 354.686 142.303C354.438 142.34 354.22 142.398 354.035 142.477C353.849 142.557 353.705 142.665 353.602 142.8C353.5 142.933 353.448 143.099 353.448 143.298C353.448 143.586 353.553 143.806 353.761 143.959C353.973 144.108 354.242 144.183 354.567 144.183ZM359.904 148.364V137.864H361.992V139.146H362.086C362.179 138.941 362.313 138.732 362.489 138.52C362.668 138.304 362.9 138.125 363.185 137.983C363.473 137.837 363.831 137.764 364.259 137.764C364.816 137.764 365.329 137.91 365.8 138.202C366.271 138.49 366.647 138.926 366.929 139.509C367.21 140.089 367.351 140.817 367.351 141.692C367.351 142.544 367.214 143.263 366.939 143.849C366.667 144.433 366.296 144.875 365.825 145.177C365.358 145.475 364.834 145.624 364.254 145.624C363.843 145.624 363.493 145.556 363.205 145.42C362.92 145.285 362.686 145.114 362.504 144.908C362.322 144.7 362.182 144.489 362.086 144.277H362.022V148.364H359.904ZM361.977 141.682C361.977 142.136 362.04 142.532 362.166 142.87C362.292 143.208 362.474 143.472 362.713 143.661C362.951 143.846 363.241 143.939 363.583 143.939C363.927 143.939 364.219 143.844 364.458 143.656C364.696 143.463 364.877 143.198 365 142.86C365.126 142.519 365.189 142.126 365.189 141.682C365.189 141.241 365.127 140.853 365.005 140.518C364.882 140.184 364.701 139.922 364.463 139.733C364.224 139.544 363.931 139.45 363.583 139.45C363.238 139.45 362.946 139.541 362.708 139.723C362.472 139.905 362.292 140.164 362.166 140.499C362.04 140.833 361.977 141.228 361.977 141.682ZM372.243 145.649C371.458 145.649 370.782 145.49 370.215 145.172C369.651 144.85 369.217 144.396 368.912 143.81C368.607 143.22 368.455 142.522 368.455 141.717C368.455 140.931 368.607 140.242 368.912 139.648C369.217 139.055 369.646 138.593 370.2 138.261C370.757 137.93 371.41 137.764 372.159 137.764C372.663 137.764 373.132 137.845 373.566 138.008C374.003 138.167 374.384 138.407 374.709 138.729C375.037 139.05 375.292 139.455 375.475 139.942C375.657 140.426 375.748 140.992 375.748 141.642V142.224H369.3V140.911H373.755C373.755 140.606 373.688 140.336 373.556 140.101C373.423 139.866 373.239 139.682 373.004 139.549C372.772 139.413 372.502 139.345 372.194 139.345C371.872 139.345 371.587 139.42 371.338 139.569C371.093 139.715 370.901 139.912 370.762 140.161C370.623 140.406 370.551 140.679 370.548 140.981V142.229C370.548 142.607 370.618 142.933 370.757 143.208C370.899 143.483 371.1 143.695 371.358 143.844C371.617 143.994 371.923 144.068 372.278 144.068C372.513 144.068 372.729 144.035 372.924 143.969C373.12 143.902 373.287 143.803 373.426 143.67C373.566 143.538 373.672 143.375 373.745 143.183L375.703 143.312C375.604 143.783 375.4 144.194 375.092 144.545C374.787 144.893 374.393 145.165 373.909 145.361C373.428 145.553 372.873 145.649 372.243 145.649ZM377.11 145.5V143.949L380.735 140.593C381.043 140.295 381.301 140.026 381.51 139.788C381.722 139.549 381.883 139.315 381.993 139.087C382.102 138.855 382.157 138.604 382.157 138.336C382.157 138.038 382.089 137.781 381.953 137.565C381.817 137.347 381.631 137.179 381.396 137.063C381.161 136.944 380.894 136.884 380.596 136.884C380.284 136.884 380.012 136.947 379.78 137.073C379.548 137.199 379.369 137.38 379.243 137.615C379.117 137.85 379.054 138.13 379.054 138.455H377.011C377.011 137.789 377.162 137.211 377.463 136.72C377.765 136.23 378.188 135.85 378.731 135.582C379.275 135.313 379.901 135.179 380.61 135.179C381.34 135.179 381.974 135.308 382.515 135.567C383.058 135.822 383.481 136.177 383.782 136.631C384.084 137.085 384.235 137.605 384.235 138.192C384.235 138.576 384.158 138.956 384.006 139.33C383.857 139.705 383.59 140.121 383.206 140.578C382.821 141.032 382.279 141.577 381.58 142.214L380.093 143.67V143.74H384.369V145.5H377.11ZM389.598 145.5H385.988V135.318H389.628C390.652 135.318 391.533 135.522 392.273 135.93C393.012 136.334 393.58 136.916 393.978 137.675C394.379 138.434 394.579 139.342 394.579 140.399C394.579 141.46 394.379 142.371 393.978 143.134C393.58 143.896 393.008 144.481 392.263 144.888C391.52 145.296 390.632 145.5 389.598 145.5ZM388.141 143.656H389.508C390.145 143.656 390.68 143.543 391.114 143.317C391.552 143.089 391.88 142.736 392.099 142.259C392.321 141.778 392.432 141.158 392.432 140.399C392.432 139.647 392.321 139.032 392.099 138.555C391.88 138.077 391.553 137.726 391.119 137.501C390.685 137.275 390.15 137.163 389.513 137.163H388.141V143.656Z" fill="#8DA5F3"/>
</g>
<g clip-path="url(#clip4_13_344)">
<g clip-path="url(#clip5_13_344)">
<path d="M250 162C249.204 162 248.441 162.316 247.879 162.879C247.316 163.441 247 164.204 247 165H257.5C258.296 165 259.059 165.316 259.621 165.879C260.184 166.441 260.5 167.204 260.5 168V177C261.296 177 262.059 176.684 262.621 176.121C263.184 175.559 263.5 174.796 263.5 174V165C263.5 164.204 263.184 163.441 262.621 162.879C262.059 162.316 261.296 162 260.5 162H250Z" fill="#8DA5F3" fill-opacity="0.4"/>
<path d="M247 165C246.204 165 245.441 165.316 244.879 165.879C244.316 166.441 244 167.204 244 168H254.5C255.296 168 256.059 168.316 256.621 168.879C257.184 169.441 257.5 170.204 257.5 171V181.5C258.296 181.5 259.059 181.184 259.621 180.621C260.184 180.059 260.5 179.296 260.5 178.5V168C260.5 167.204 260.184 166.441 259.621 165.879C259.059 165.316 258.296 165 257.5 165H247Z" fill="#8DA5F3" fill-opacity="0.6"/>
<path d="M244 168C243.204 168 242.441 168.316 241.879 168.879C241.316 169.441 241 170.204 241 171V181.5C241 182.296 241.316 183.059 241.879 183.621C242.441 184.184 243.204 184.5 244 184.5H254.5C255.296 184.5 256.059 184.184 256.621 183.621C257.184 183.059 257.5 182.296 257.5 181.5V171C257.5 170.204 257.184 169.441 256.621 168.879C256.059 168.316 255.296 168 254.5 168H244ZM242.5 175.5C242.5 175.102 242.658 174.721 242.939 174.439C243.221 174.158 243.602 174 244 174C244.398 174 244.779 174.158 245.061 174.439C245.342 174.721 245.5 175.102 245.5 175.5V177C245.5 177.398 245.342 177.779 245.061 178.061C244.779 178.342 244.398 178.5 244 178.5C243.602 178.5 243.221 178.342 242.939 178.061C242.658 177.779 242.5 177.398 242.5 177V175.5ZM253 175.5C253 175.102 253.158 174.721 253.439 174.439C253.721 174.158 254.102 174 254.5 174C254.898 174 255.279 174.158 255.561 174.439C255.842 174.721 256 175.102 256 175.5V177C256 177.398 255.842 177.779 255.561 178.061C255.279 178.342 254.898 178.5 254.5 178.5C254.102 178.5 253.721 178.342 253.439 178.061C253.158 177.779 253 177.398 253 177V175.5ZM253 180C253 180.796 252.605 181.559 251.902 182.121C251.198 182.684 250.245 183 249.25 183C248.255 183 247.302 182.684 246.598 182.121C245.895 181.559 245.5 180.796 245.5 180H253Z" fill="#8DA5F3"/>
</g>
<path d="M276.14 179.5H273.833L277.348 169.318H280.122L283.632 179.5H281.325L278.775 171.645H278.695L276.14 179.5ZM275.996 175.498H281.445V177.178H275.996V175.498ZM286.936 175.085V179.5H284.818V171.864H286.836V173.211H286.926C287.095 172.767 287.378 172.415 287.776 172.157C288.174 171.895 288.656 171.764 289.223 171.764C289.753 171.764 290.215 171.88 290.61 172.112C291.004 172.344 291.311 172.676 291.529 173.107C291.748 173.534 291.858 174.045 291.858 174.638V179.5H289.74V175.016C289.743 174.548 289.624 174.184 289.382 173.922C289.14 173.657 288.807 173.524 288.382 173.524C288.097 173.524 287.846 173.585 287.627 173.708C287.411 173.831 287.242 174.01 287.12 174.245C287 174.477 286.939 174.757 286.936 175.085ZM293.527 179.5V171.864H295.645V179.5H293.527ZM294.591 170.879C294.276 170.879 294.006 170.775 293.78 170.566C293.558 170.354 293.447 170.1 293.447 169.805C293.447 169.514 293.558 169.263 293.78 169.055C294.006 168.843 294.276 168.737 294.591 168.737C294.906 168.737 295.174 168.843 295.396 169.055C295.622 169.263 295.734 169.514 295.734 169.805C295.734 170.1 295.622 170.354 295.396 170.566C295.174 170.775 294.906 170.879 294.591 170.879ZM297.341 179.5V171.864H299.36V173.211H299.449C299.608 172.763 299.873 172.411 300.245 172.152C300.616 171.893 301.06 171.764 301.577 171.764C302.101 171.764 302.547 171.895 302.914 172.157C303.282 172.415 303.528 172.767 303.65 173.211H303.73C303.886 172.773 304.167 172.424 304.575 172.162C304.986 171.897 305.471 171.764 306.032 171.764C306.744 171.764 307.323 171.991 307.767 172.445C308.214 172.896 308.438 173.536 308.438 174.364V179.5H306.325V174.782C306.325 174.358 306.212 174.04 305.987 173.827C305.761 173.615 305.48 173.509 305.142 173.509C304.757 173.509 304.457 173.632 304.242 173.877C304.026 174.119 303.919 174.439 303.919 174.837V179.5H301.865V174.737C301.865 174.363 301.758 174.064 301.542 173.842C301.33 173.62 301.05 173.509 300.702 173.509C300.467 173.509 300.255 173.569 300.066 173.688C299.88 173.804 299.733 173.968 299.623 174.18C299.514 174.389 299.459 174.634 299.459 174.916V179.5H297.341ZM312.288 179.644C311.801 179.644 311.367 179.56 310.986 179.391C310.605 179.218 310.303 178.965 310.081 178.63C309.862 178.292 309.753 177.871 309.753 177.367C309.753 176.943 309.831 176.587 309.987 176.298C310.142 176.01 310.354 175.778 310.623 175.602C310.891 175.427 311.196 175.294 311.538 175.205C311.882 175.115 312.244 175.052 312.621 175.016C313.066 174.969 313.424 174.926 313.695 174.886C313.967 174.843 314.164 174.78 314.287 174.697C314.41 174.615 314.471 174.492 314.471 174.33V174.3C314.471 173.985 314.371 173.741 314.173 173.569C313.977 173.397 313.699 173.31 313.337 173.31C312.956 173.31 312.653 173.395 312.428 173.564C312.202 173.73 312.053 173.938 311.98 174.19L310.021 174.031C310.121 173.567 310.316 173.166 310.608 172.828C310.9 172.487 311.276 172.225 311.737 172.043C312.201 171.857 312.737 171.764 313.347 171.764C313.772 171.764 314.178 171.814 314.565 171.913C314.956 172.013 315.303 172.167 315.604 172.376C315.909 172.585 316.15 172.853 316.325 173.181C316.501 173.506 316.589 173.895 316.589 174.349V179.5H314.58V178.441H314.521C314.398 178.68 314.234 178.89 314.028 179.072C313.823 179.251 313.576 179.392 313.288 179.495C312.999 179.594 312.666 179.644 312.288 179.644ZM312.895 178.183C313.206 178.183 313.482 178.121 313.72 177.999C313.959 177.873 314.146 177.704 314.282 177.491C314.418 177.279 314.486 177.039 314.486 176.771V175.96C314.42 176.003 314.328 176.043 314.212 176.08C314.1 176.113 313.972 176.144 313.83 176.174C313.687 176.201 313.545 176.225 313.402 176.249C313.259 176.268 313.13 176.287 313.014 176.303C312.766 176.34 312.549 176.398 312.363 176.477C312.177 176.557 312.033 176.665 311.93 176.8C311.828 176.933 311.776 177.099 311.776 177.298C311.776 177.586 311.881 177.806 312.089 177.959C312.302 178.108 312.57 178.183 312.895 178.183ZM322.294 171.864V173.455H317.695V171.864H322.294ZM318.739 170.034H320.857V177.153C320.857 177.349 320.887 177.501 320.946 177.611C321.006 177.717 321.089 177.791 321.195 177.835C321.304 177.878 321.43 177.899 321.573 177.899C321.672 177.899 321.772 177.891 321.871 177.874C321.971 177.854 322.047 177.839 322.1 177.83L322.433 179.406C322.327 179.439 322.178 179.477 321.985 179.52C321.793 179.566 321.56 179.594 321.284 179.604C320.774 179.624 320.327 179.556 319.942 179.401C319.561 179.245 319.264 179.003 319.052 178.675C318.84 178.347 318.736 177.932 318.739 177.432V170.034ZM327.071 179.649C326.286 179.649 325.61 179.49 325.043 179.172C324.48 178.85 324.045 178.396 323.74 177.81C323.435 177.22 323.283 176.522 323.283 175.717C323.283 174.931 323.435 174.242 323.74 173.648C324.045 173.055 324.475 172.593 325.028 172.261C325.585 171.93 326.238 171.764 326.987 171.764C327.491 171.764 327.96 171.845 328.394 172.008C328.831 172.167 329.212 172.407 329.537 172.729C329.865 173.05 330.121 173.455 330.303 173.942C330.485 174.426 330.576 174.992 330.576 175.642V176.224H324.128V174.911H328.583C328.583 174.606 328.516 174.336 328.384 174.101C328.251 173.866 328.067 173.682 327.832 173.549C327.6 173.413 327.33 173.345 327.022 173.345C326.7 173.345 326.415 173.42 326.167 173.569C325.921 173.715 325.729 173.912 325.59 174.161C325.451 174.406 325.379 174.679 325.376 174.981V176.229C325.376 176.607 325.446 176.933 325.585 177.208C325.727 177.483 325.928 177.695 326.186 177.844C326.445 177.994 326.752 178.068 327.106 178.068C327.342 178.068 327.557 178.035 327.752 177.969C327.948 177.902 328.115 177.803 328.255 177.67C328.394 177.538 328.5 177.375 328.573 177.183L330.532 177.312C330.432 177.783 330.228 178.194 329.92 178.545C329.615 178.893 329.221 179.165 328.737 179.361C328.256 179.553 327.701 179.649 327.071 179.649ZM334.772 179.624C334.192 179.624 333.667 179.475 333.196 179.177C332.729 178.875 332.358 178.433 332.083 177.849C331.811 177.263 331.675 176.544 331.675 175.692C331.675 174.817 331.816 174.089 332.098 173.509C332.379 172.926 332.754 172.49 333.221 172.202C333.692 171.91 334.207 171.764 334.767 171.764C335.195 171.764 335.551 171.837 335.836 171.983C336.125 172.125 336.357 172.304 336.532 172.52C336.711 172.732 336.847 172.941 336.94 173.146H337.005V169.318H339.118V179.5H337.029V178.277H336.94C336.841 178.489 336.7 178.7 336.517 178.908C336.338 179.114 336.105 179.285 335.816 179.42C335.531 179.556 335.183 179.624 334.772 179.624ZM335.444 177.939C335.785 177.939 336.073 177.846 336.309 177.661C336.547 177.472 336.73 177.208 336.855 176.87C336.985 176.532 337.049 176.136 337.049 175.682C337.049 175.228 336.986 174.833 336.86 174.499C336.734 174.164 336.552 173.905 336.314 173.723C336.075 173.541 335.785 173.45 335.444 173.45C335.096 173.45 334.802 173.544 334.564 173.733C334.325 173.922 334.144 174.184 334.022 174.518C333.899 174.853 333.838 175.241 333.838 175.682C333.838 176.126 333.899 176.519 334.022 176.86C334.148 177.198 334.328 177.463 334.564 177.656C334.802 177.844 335.096 177.939 335.444 177.939ZM346.422 172.246C346.382 171.845 346.212 171.534 345.91 171.312C345.608 171.09 345.199 170.979 344.682 170.979C344.331 170.979 344.034 171.028 343.792 171.128C343.55 171.224 343.365 171.358 343.235 171.531C343.109 171.703 343.046 171.898 343.046 172.117C343.04 172.299 343.078 172.459 343.161 172.594C343.247 172.73 343.365 172.848 343.514 172.947C343.663 173.044 343.835 173.128 344.031 173.201C344.226 173.271 344.435 173.33 344.657 173.38L345.572 173.599C346.016 173.698 346.424 173.831 346.795 173.996C347.166 174.162 347.488 174.366 347.759 174.608C348.031 174.85 348.242 175.135 348.391 175.463C348.543 175.791 348.621 176.167 348.624 176.592C348.621 177.215 348.462 177.755 348.147 178.212C347.836 178.666 347.385 179.019 346.795 179.271C346.208 179.52 345.501 179.644 344.672 179.644C343.85 179.644 343.134 179.518 342.524 179.266C341.918 179.014 341.444 178.642 341.102 178.148C340.764 177.651 340.587 177.036 340.57 176.303H342.654C342.677 176.645 342.775 176.93 342.947 177.158C343.123 177.384 343.356 177.554 343.648 177.67C343.943 177.783 344.276 177.839 344.647 177.839C345.012 177.839 345.328 177.786 345.597 177.68C345.869 177.574 346.079 177.427 346.228 177.238C346.377 177.049 346.452 176.832 346.452 176.587C346.452 176.358 346.384 176.166 346.248 176.01C346.115 175.854 345.92 175.722 345.661 175.612C345.406 175.503 345.093 175.403 344.722 175.314L343.613 175.036C342.755 174.827 342.077 174.5 341.58 174.056C341.083 173.612 340.836 173.014 340.839 172.261C340.836 171.645 341 171.106 341.331 170.646C341.666 170.185 342.125 169.825 342.708 169.567C343.292 169.308 343.954 169.179 344.697 169.179C345.453 169.179 346.112 169.308 346.676 169.567C347.242 169.825 347.683 170.185 347.998 170.646C348.313 171.106 348.475 171.64 348.485 172.246H346.422ZM350.033 182.364V171.864H352.121V173.146H352.215C352.308 172.941 352.442 172.732 352.618 172.52C352.797 172.304 353.029 172.125 353.314 171.983C353.602 171.837 353.96 171.764 354.388 171.764C354.945 171.764 355.458 171.91 355.929 172.202C356.4 172.49 356.776 172.926 357.058 173.509C357.339 174.089 357.48 174.817 357.48 175.692C357.48 176.544 357.343 177.263 357.067 177.849C356.796 178.433 356.424 178.875 355.954 179.177C355.487 179.475 354.963 179.624 354.383 179.624C353.972 179.624 353.622 179.556 353.334 179.42C353.049 179.285 352.815 179.114 352.633 178.908C352.451 178.7 352.311 178.489 352.215 178.277H352.151V182.364H350.033ZM352.106 175.682C352.106 176.136 352.169 176.532 352.295 176.87C352.421 177.208 352.603 177.472 352.842 177.661C353.08 177.846 353.37 177.939 353.712 177.939C354.056 177.939 354.348 177.844 354.587 177.656C354.825 177.463 355.006 177.198 355.129 176.86C355.254 176.519 355.317 176.126 355.317 175.682C355.317 175.241 355.256 174.853 355.134 174.518C355.011 174.184 354.83 173.922 354.592 173.733C354.353 173.544 354.06 173.45 353.712 173.45C353.367 173.45 353.075 173.541 352.837 173.723C352.601 173.905 352.421 174.164 352.295 174.499C352.169 174.833 352.106 175.228 352.106 175.682ZM358.892 179.5V171.864H360.945V173.196H361.025C361.164 172.722 361.398 172.364 361.726 172.122C362.054 171.877 362.432 171.754 362.859 171.754C362.965 171.754 363.08 171.761 363.202 171.774C363.325 171.787 363.433 171.806 363.526 171.829V173.708C363.426 173.678 363.289 173.652 363.113 173.629C362.937 173.605 362.777 173.594 362.631 173.594C362.319 173.594 362.041 173.662 361.795 173.798C361.554 173.93 361.361 174.116 361.219 174.354C361.08 174.593 361.01 174.868 361.01 175.18V179.5H358.892ZM364.621 179.5V171.864H366.738V179.5H364.621ZM365.684 170.879C365.37 170.879 365.099 170.775 364.874 170.566C364.652 170.354 364.541 170.1 364.541 169.805C364.541 169.514 364.652 169.263 364.874 169.055C365.099 168.843 365.37 168.737 365.684 168.737C365.999 168.737 366.268 168.843 366.49 169.055C366.715 169.263 366.828 169.514 366.828 169.805C366.828 170.1 366.715 170.354 366.49 170.566C366.268 170.775 365.999 170.879 365.684 170.879ZM372.497 171.864V173.455H367.898V171.864H372.497ZM368.942 170.034H371.06V177.153C371.06 177.349 371.09 177.501 371.15 177.611C371.209 177.717 371.292 177.791 371.398 177.835C371.507 177.878 371.633 177.899 371.776 177.899C371.875 177.899 371.975 177.891 372.074 177.874C372.174 177.854 372.25 177.839 372.303 177.83L372.636 179.406C372.53 179.439 372.381 179.477 372.189 179.52C371.996 179.566 371.763 179.594 371.488 179.604C370.977 179.624 370.53 179.556 370.145 179.401C369.764 179.245 369.467 179.003 369.255 178.675C369.043 178.347 368.939 177.932 368.942 177.432V170.034ZM377.275 179.649C376.489 179.649 375.813 179.49 375.246 179.172C374.683 178.85 374.248 178.396 373.944 177.81C373.639 177.22 373.486 176.522 373.486 175.717C373.486 174.931 373.639 174.242 373.944 173.648C374.248 173.055 374.678 172.593 375.231 172.261C375.788 171.93 376.441 171.764 377.19 171.764C377.694 171.764 378.163 171.845 378.597 172.008C379.034 172.167 379.416 172.407 379.74 172.729C380.069 173.05 380.324 173.455 380.506 173.942C380.688 174.426 380.779 174.992 380.779 175.642V176.224H374.331V174.911H378.786C378.786 174.606 378.72 174.336 378.587 174.101C378.454 173.866 378.27 173.682 378.035 173.549C377.803 173.413 377.533 173.345 377.225 173.345C376.903 173.345 376.618 173.42 376.37 173.569C376.124 173.715 375.932 173.912 375.793 174.161C375.654 174.406 375.583 174.679 375.579 174.981V176.229C375.579 176.607 375.649 176.933 375.788 177.208C375.931 177.483 376.131 177.695 376.39 177.844C376.648 177.994 376.955 178.068 377.309 178.068C377.545 178.068 377.76 178.035 377.956 177.969C378.151 177.902 378.319 177.803 378.458 177.67C378.597 177.538 378.703 177.375 378.776 177.183L380.735 177.312C380.635 177.783 380.431 178.194 380.123 178.545C379.818 178.893 379.424 179.165 378.94 179.361C378.459 179.553 377.904 179.649 377.275 179.649ZM382.142 179.5V177.949L385.766 174.593C386.074 174.295 386.333 174.026 386.542 173.788C386.754 173.549 386.914 173.315 387.024 173.087C387.133 172.855 387.188 172.604 387.188 172.336C387.188 172.038 387.12 171.781 386.984 171.565C386.848 171.347 386.663 171.179 386.427 171.063C386.192 170.944 385.925 170.884 385.627 170.884C385.315 170.884 385.043 170.947 384.811 171.073C384.579 171.199 384.4 171.38 384.275 171.615C384.149 171.85 384.086 172.13 384.086 172.455H382.042C382.042 171.789 382.193 171.211 382.495 170.72C382.796 170.23 383.219 169.85 383.762 169.582C384.306 169.313 384.932 169.179 385.642 169.179C386.371 169.179 387.006 169.308 387.546 169.567C388.089 169.822 388.512 170.177 388.814 170.631C389.115 171.085 389.266 171.605 389.266 172.192C389.266 172.576 389.19 172.956 389.037 173.33C388.888 173.705 388.621 174.121 388.237 174.578C387.852 175.032 387.31 175.577 386.611 176.214L385.125 177.67V177.74H389.4V179.5H382.142ZM394.629 179.5H391.02V169.318H394.659C395.683 169.318 396.565 169.522 397.304 169.93C398.043 170.334 398.611 170.916 399.009 171.675C399.41 172.434 399.611 173.342 399.611 174.399C399.611 175.46 399.41 176.371 399.009 177.134C398.611 177.896 398.04 178.481 397.294 178.888C396.551 179.296 395.663 179.5 394.629 179.5ZM393.172 177.656H394.54C395.176 177.656 395.711 177.543 396.145 177.317C396.583 177.089 396.911 176.736 397.13 176.259C397.352 175.778 397.463 175.158 397.463 174.399C397.463 173.647 397.352 173.032 397.13 172.555C396.911 172.077 396.585 171.726 396.15 171.501C395.716 171.275 395.181 171.163 394.545 171.163H393.172V177.656Z" fill="#8DA5F3"/>
</g>
</g>
<g filter="url(#filter0_f_13_344)">
<circle cx="312.5" cy="140" r="85" fill="#fe3e02" fill-opacity="0.1"/>
</g>
</g>
<defs>
<filter id="filter0_f_13_344" x="127.5" y="-45" width="370" height="370" filterUnits="userSpaceOnUse" color-interpolation-filters="sRGB">
<feFlood flood-opacity="0" result="BackgroundImageFix"/>
<feBlend mode="normal" in="SourceGraphic" in2="BackgroundImageFix" result="shape"/>
<feGaussianBlur stdDeviation="50" result="effect1_foregroundBlur_13_344"/>
</filter>
<clipPath id="clip0_13_344">
<rect width="625" height="280" fill="white"/>
</clipPath>
<clipPath id="clip1_13_344">
<rect width="199" height="116" fill="white" transform="translate(213.5 82)"/>
</clipPath>
<clipPath id="clip2_13_344">
<rect width="199" height="24" fill="white" transform="translate(213.5 94)"/>
</clipPath>
<clipPath id="clip3_13_344">
<rect width="199" height="24" fill="white" transform="translate(213.5 128)"/>
</clipPath>
<clipPath id="clip4_13_344">
<rect width="199" height="24" fill="white" transform="translate(213.5 162)"/>
</clipPath>
<clipPath id="clip5_13_344">
<rect width="24" height="24" fill="white" transform="translate(239.5 162)"/>
</clipPath>
</defs>
</svg>
