<svg width="200" height="192" viewBox="0 0 200 192" fill="none" xmlns="http://www.w3.org/2000/svg">
<path fill-rule="evenodd" clip-rule="evenodd" d="M163.889 96C163.889 109.561 159.652 122.125 152.447 132.467L155.259 148.383L158.269 165.417L142.357 158.632L128.986 152.929C120.284 157.369 110.439 159.889 100 159.889C64.715 159.889 36.1111 131.285 36.1111 96C36.1111 60.715 64.715 32.1111 100 32.1111C135.285 32.1111 163.889 60.715 163.889 96ZM86.2546 59.7131L88.3688 53H110.631L112.746 59.7131L113.678 60.1184C115.67 60.9842 117.663 61.8501 119.654 62.7165C120.165 62.6084 120.676 62.4968 121.187 62.3851C123.123 61.9621 125.065 61.5377 127.024 61.3002C127.414 61.7423 137.302 77.1858 137.302 77.1858L135.472 80.3209L99.5001 92.6471L63.5285 80.3209C63.3129 79.9386 63.0719 79.5676 62.8307 79.1961C62.4098 78.548 61.988 77.8986 61.6984 77.1858C61.6956 77.0279 71.5855 61.7423 71.9764 61.3002C73.9353 61.5377 75.8778 61.9621 77.8137 62.3852C78.3247 62.4969 78.8353 62.6084 79.3456 62.7165C81.2551 61.8859 83.1648 61.0559 85.0745 60.226L86.2546 59.7131ZM64.9749 96.4081L66.1305 85.0148L99.5001 96.4441L132.87 85.0148C133.303 88.5651 134.025 96.4081 134.025 96.4081L131.958 105.191L115.376 112.762L99.5001 106.795L83.6243 112.762L67.0422 105.191L64.9749 96.4081ZM91.3772 98.9707L75.7349 93.5481C75.447 94.0378 75.2087 94.5554 75.0237 95.0929C73.5008 99.528 75.8445 104.364 80.2584 105.894C84.6723 107.424 89.4851 105.069 91.0078 100.634C91.1861 100.093 91.3098 99.5362 91.3772 98.9707ZM123.976 95.0929C123.792 94.5554 123.553 94.0378 123.265 93.5481L107.623 98.9707C107.69 99.5362 107.814 100.093 107.992 100.634C109.515 105.069 114.328 107.424 118.742 105.894C123.156 104.364 125.499 99.528 123.976 95.0929ZM58.0001 103.417L61.982 99.4528L63.9251 107.496L81.8052 115.856L82.8196 132.206L63.9654 124.436L58.0001 103.417ZM135.075 107.496L137.018 99.4528L141 103.417L135.035 124.436L116.181 132.206L117.195 115.856L135.075 107.496ZM85.3617 115.901L99.5001 110.279L113.638 115.901L112.78 133.564L99.5001 139L86.2198 133.564L85.3617 115.901Z" fill="#FE3F02"/>
</svg>
