<svg viewBox="0 0 200 192" fill="none" xmlns="http://www.w3.org/2000/svg">
<path fill-rule="evenodd" clip-rule="evenodd" d="M163.889 96C163.889 109.561 159.652 122.125 152.447 132.467L155.259 148.383L158.269 165.417L142.357 158.632L128.986 152.929C120.284 157.369 110.439 159.889 100 159.889C64.715 159.889 36.1111 131.285 36.1111 96C36.1111 60.715 64.715 32.1111 100 32.1111C135.285 32.1111 163.889 60.715 163.889 96ZM106.388 69.0796C105.61 68.9627 104.827 68.8669 104.037 68.7928C102.785 68.5881 99.9999 68.5002 99.9999 68.5002C99.9702 68.5009 97.2085 68.5895 95.963 68.7928C95.1733 68.8669 94.3894 68.9627 93.6121 69.0796L89.6666 60.6746C89.1781 59.6327 87.9755 59.1063 86.8142 59.4265L78.1234 61.8233C76.9621 62.1442 76.176 63.218 76.2588 64.3718L77.0397 75.2781C73.6466 77.4294 69.4137 81.4228 66.5975 84.5558C66.2634 84.3026 65.8286 83.9381 65.3254 83.5162L65.307 83.5008C62.562 81.1977 57.8276 77.2268 56.5908 80.4005C54.7081 85.2335 54.9198 90.8804 55.1411 96.7816L55.1414 96.7886L55.1581 97.2279C55.1675 97.4907 55.2147 97.7369 55.2916 97.9641C55.7184 107.189 60.553 118.119 67.8655 124.242C76.7763 131.702 92.0139 132.667 99.9999 132.667C107.986 132.667 123.224 131.702 132.134 124.242C139.447 118.119 144.281 107.189 144.708 97.9641C144.785 97.7369 144.832 97.4907 144.842 97.2272L144.858 96.7886L144.859 96.7814C145.08 90.8803 145.292 85.2334 143.409 80.4005C142.172 77.2268 137.438 81.1977 134.693 83.5008C134.183 83.9292 133.741 84.2995 133.402 84.5558C130.586 81.4228 126.353 77.4294 122.96 75.2781L123.741 64.3718C123.824 63.218 123.038 62.1442 121.877 61.8233L113.186 59.4265C112.024 59.1063 110.822 59.6327 110.333 60.6746L106.388 69.0796ZM92.4022 113.774C91.2808 101.554 75.157 102.177 75.157 102.177C75.157 102.177 71.4793 113.774 82.9638 116.483C87.1118 117.461 92.4022 113.774 92.4022 113.774ZM107.717 113.774C108.84 101.554 124.963 102.177 124.963 102.177C124.963 102.177 128.64 113.774 117.157 116.483C113.009 117.461 107.717 113.774 107.717 113.774Z" fill="#ED0042"/>
</svg>
