<svg width="16" height="16" viewBox="0 0 16 16" fill="none" xmlns="http://www.w3.org/2000/svg">
<path d="M7.10101 13.9893L5.76674 13.609C5.62675 13.5703 5.548 13.4264 5.58738 13.2888L8.57308 3.18613C8.61245 3.04862 8.759 2.97127 8.89899 3.00994L10.2333 3.39025C10.3733 3.42892 10.452 3.57288 10.4126 3.71039L7.42692 13.8131C7.38536 13.9506 7.241 14.0301 7.10101 13.9893ZM4.60745 11.5786L5.55894 10.5816C5.65956 10.4763 5.653 10.3087 5.54144 10.212L3.55972 8.49962L5.54144 6.78718C5.653 6.69049 5.66175 6.5229 5.55894 6.41762L4.60745 5.42067C4.50902 5.31754 4.34279 5.31109 4.23561 5.40993L1.08367 8.31054C0.972112 8.41152 0.972112 8.58556 1.08367 8.68654L4.23561 11.5893C4.34279 11.6881 4.50902 11.6838 4.60745 11.5786ZM11.7644 11.5914L14.9163 8.68869C15.0279 8.58771 15.0279 8.41367 14.9163 8.31269L11.7644 5.40778C11.6594 5.31109 11.4932 5.31539 11.3925 5.41852L10.4411 6.41547C10.3404 6.52076 10.347 6.68835 10.4586 6.78503L12.4403 8.49962L10.4586 10.212C10.347 10.3087 10.3383 10.4763 10.4411 10.5816L11.3925 11.5786C11.491 11.6838 11.6572 11.6881 11.7644 11.5914Z" fill="white"/>
</svg>
