<svg width="136" height="140" viewBox="0 0 136 140" fill="none" xmlns="http://www.w3.org/2000/svg">
<path d="M49.7609 0L46.2965 10.9282C42.5228 12.5576 38.7491 14.1869 34.9758 15.8174C30.9721 14.9755 26.9581 14.0006 22.9009 13.512C22.2605 14.2316 6.05535 39.1151 6.05995 39.3722C6.80654 41.1976 8.08872 42.7677 9.05854 44.4758L68 65.1473L126.941 44.4758C127.911 42.7677 129.193 41.1976 129.94 39.3722C129.946 39.1151 113.739 14.2316 113.099 13.512C109.042 14.0006 105.028 14.9755 101.024 15.8174C97.2509 14.1869 93.4772 12.5576 89.7035 10.9282L86.2388 0H49.7609ZM13.5474 51.9941C13.4744 51.9707 13.3275 52.0801 13.3222 52.117C12.6122 57.8967 11.2247 69.46 11.2247 69.46L14.816 84.9617L41.9865 97.2864L68 87.5738L94.0132 97.2864L121.184 84.9617L124.775 69.46C124.775 69.46 123.388 57.8967 122.678 52.117C122.672 52.0678 122.412 51.8894 122.412 52.0695C104.625 58.3823 86.0714 64.4959 68 70.7227C49.9286 64.4959 31.3745 58.3823 13.5875 52.0695C13.5875 52.0243 13.5708 52.002 13.5474 51.9941ZM26.3165 65.1591L51.7514 74.5345C51.6213 75.4525 51.3991 76.355 51.0881 77.2286C50.458 78.9322 49.4979 80.4952 48.2627 81.8284C47.0274 83.1616 45.5412 84.2389 43.8889 84.9987C42.2366 85.7585 40.4505 86.186 38.6327 86.2567C36.8149 86.3275 35.0009 86.0401 33.2943 85.411C31.5878 84.782 30.022 83.8236 28.6865 82.5905C27.3509 81.3574 26.2718 79.8738 25.5106 78.2243C24.7495 76.5749 24.3212 74.792 24.2504 72.9773C24.1795 71.1627 24.4674 69.3519 25.0975 67.6483C25.4194 66.7799 25.8278 65.946 26.3165 65.1591ZM109.683 65.1591C110.172 65.946 110.581 66.7799 110.902 67.6483C111.533 69.3519 111.82 71.1627 111.75 72.9773C111.679 74.792 111.25 76.5749 110.489 78.2243C109.728 79.8738 108.649 81.3574 107.314 82.5905C105.978 83.8236 104.412 84.782 102.706 85.411C100.999 86.0401 99.1851 86.3275 97.3673 86.2567C95.5495 86.186 93.7634 85.7585 92.1111 84.9987C90.4588 84.2389 88.9725 83.1616 87.7373 81.8284C86.502 80.4952 85.542 78.9322 84.9118 77.2286C84.6008 76.355 84.3786 75.4525 84.2486 74.5345L109.683 65.1591ZM6.52466 75.6207L0 82.0748L9.77458 116.29L40.6681 128.94L39.0059 102.324L9.70833 88.7137L6.52466 75.6207ZM129.475 75.6207L126.292 88.7137L96.994 102.324L95.3319 128.94L126.225 116.29L136 82.0748L129.475 75.6207ZM68 93.2445L44.8334 102.397L46.2396 131.15L68 140L89.7603 131.15L91.1665 102.397L68 93.2445Z" fill="white"/>
</svg>
