<svg viewBox="0 0 140 116" fill="none" xmlns="http://www.w3.org/2000/svg">
<path fill-rule="evenodd" clip-rule="evenodd" d="M76.2797 15.3342C77.5081 15.4504 78.7274 15.6007 79.9366 15.784L86.0741 2.60343C86.8339 0.969523 88.7047 0.144029 90.5112 0.646156L104.03 4.40471C105.837 4.90798 107.059 6.59198 106.931 8.40123L105.716 25.5043C110.994 28.878 117.579 35.1404 121.959 40.0535C122.485 39.6515 123.173 39.0708 123.967 38.399C128.237 34.7874 135.601 28.5603 137.525 33.5372C140.455 41.1192 140.124 49.9787 139.78 59.2367L139.754 59.9245C139.739 60.3378 139.666 60.7238 139.546 61.0802C138.882 75.5462 131.362 92.6868 119.987 102.289C106.126 113.987 82.4228 115.5 70 115.5C57.5772 115.5 33.8743 113.988 20.0131 102.289C8.6381 92.6868 1.11759 75.5462 0.453721 61.0802C0.334043 60.7238 0.260667 60.3378 0.245989 59.9256L0.220027 59.2367C-0.124329 49.9787 -0.455142 41.1192 2.4747 33.5372C4.39858 28.5603 11.7633 34.7874 16.0333 38.399C16.8281 39.0708 17.5146 39.6515 18.0407 40.0535C22.4214 35.1404 29.0059 28.878 34.2841 25.5043L33.0693 8.40123C32.9406 6.59198 34.1633 4.90798 35.9698 4.40471L49.4888 0.646156C51.2953 0.144029 53.1661 0.969523 53.9259 2.60343L60.0634 15.784C61.2726 15.6007 62.4919 15.4504 63.7203 15.3342C65.6577 15.0154 69.9537 14.8765 70 14.8754C70 14.8754 74.3321 15.0131 76.2797 15.3342ZM31.3554 67.6864C31.3554 67.6864 56.4369 66.7094 58.1813 85.8722C58.1813 85.8722 49.9517 91.6552 43.4993 90.1215C25.6346 85.8722 31.3554 67.6864 31.3554 67.6864ZM108.831 67.6864C108.831 67.6864 83.7505 66.7094 82.005 85.8722C82.005 85.8722 90.2357 91.6552 96.6881 90.1215C114.552 85.8722 108.831 67.6864 108.831 67.6864Z" fill="white"/>
</svg>
