<svg width="124" height="28" viewBox="0 0 124 28" fill="none" xmlns="http://www.w3.org/2000/svg">
<path fill-rule="evenodd" clip-rule="evenodd" d="M18.784 3.61181C19.0865 3.64009 19.3868 3.67668 19.6845 3.72131L21.1959 0.512139C21.383 0.114319 21.8437 -0.0866712 22.2885 0.0355858L25.6176 0.950712C26.0625 1.07325 26.3636 1.48327 26.3319 1.92378L26.0327 6.088C27.3325 6.90942 28.954 8.43417 30.0327 9.63041C30.1623 9.53254 30.3316 9.39116 30.527 9.22759C31.5785 8.34823 33.3921 6.83208 33.8659 8.04383C34.5873 9.88989 34.5059 12.047 34.4211 14.3011L34.4147 14.4686C34.4111 14.5692 34.393 14.6632 34.3635 14.7499C34.2001 18.2721 32.3481 22.4455 29.547 24.7833C26.1337 27.6316 20.2968 28 17.2376 28C14.1785 28 8.34161 27.6318 4.92827 24.7833C2.12715 22.4455 0.275209 18.2721 0.11173 14.7499C0.0822587 14.6632 0.0641897 14.5692 0.0605753 14.4688L0.0541821 14.3011C-0.0306161 12.047 -0.11208 9.88989 0.6094 8.04383C1.08316 6.83208 2.89673 8.34823 3.94823 9.22759C4.14396 9.39116 4.313 9.53254 4.44256 9.63041C5.5213 8.43417 7.14275 6.90942 8.44253 6.088L8.14337 1.92378C8.11168 1.48327 8.41278 1.07325 8.85762 0.950712L12.1867 0.0355858C12.6316 -0.0866712 13.0923 0.114319 13.2794 0.512139L14.7907 3.72131C15.0885 3.67668 15.3888 3.64009 15.6912 3.61181C16.1683 3.53419 17.2262 3.50037 17.2376 3.50009C17.2376 3.50009 18.3044 3.53363 18.784 3.61181ZM7.72133 16.3584C7.72133 16.3584 13.8977 16.1206 14.3272 20.7863C14.3272 20.7863 12.3007 22.1943 10.7118 21.8209C6.31257 20.7863 7.72133 16.3584 7.72133 16.3584ZM26.7998 16.3584C26.7998 16.3584 20.6237 16.1206 20.1939 20.7863C20.1939 20.7863 22.2207 22.1943 23.8096 21.8209C28.2086 20.7863 26.7998 16.3584 26.7998 16.3584Z" fill="#ED0042"/>
<path d="M41.704 23.8919V4.38522H51.3563C52.6208 4.38522 53.6398 4.52699 54.4134 4.81051C55.2059 5.07497 55.8004 5.4817 56.1966 6.02968C56.612 6.55911 56.8852 7.22049 57.0175 8.01437C57.1683 8.78917 57.244 9.6779 57.244 10.6795C57.244 11.4167 57.1873 12.1631 57.0741 12.9194C56.9609 13.6566 56.7154 14.337 56.3382 14.9608C55.9795 15.5655 55.4231 16.0289 54.6681 16.3501L57.6119 23.8919H52.4886L49.7429 16.0949L50.9884 16.7754C50.8185 16.8697 50.6394 16.9264 50.4506 16.9455C50.2807 16.9646 50.0635 16.9738 49.7995 16.9738H46.6293V23.8919H41.704ZM46.6293 13.3163H49.4598C50.1016 13.3163 50.6111 13.288 50.9884 13.2313C51.3846 13.1555 51.677 13.0235 51.8658 12.8343C52.0547 12.6451 52.1772 12.3807 52.2338 12.0405C52.2904 11.7002 52.3187 11.2657 52.3187 10.7362C52.3187 10.1883 52.2904 9.74389 52.2338 9.40366C52.1962 9.06343 52.083 8.80825 51.8942 8.63813C51.7243 8.44894 51.4413 8.31697 51.045 8.24119C50.6677 8.16541 50.1392 8.12778 49.4598 8.12778H46.6293V13.3163ZM65.7887 24.1187C64.43 24.1187 63.3076 24.0337 62.4203 23.8636C61.5336 23.6934 60.8259 23.429 60.2974 23.0697C59.7879 22.6918 59.4014 22.2098 59.1369 21.6237C58.8919 21.0376 58.7313 20.3385 58.6557 19.5256C58.599 18.7126 58.5707 17.7677 58.5707 16.6903C58.5707 15.3861 58.6273 14.2613 58.7406 13.3163C58.8728 12.3714 59.1559 11.5961 59.5897 10.9914C60.0241 10.3867 60.6937 9.94236 61.5995 9.65883C62.5243 9.35623 63.7698 9.20518 65.3358 9.20518C66.6003 9.20518 67.6286 9.29952 68.4212 9.48871C69.2137 9.65883 69.8365 9.93308 70.2894 10.3109C70.7613 10.6702 71.0917 11.1425 71.2801 11.7286C71.488 12.3147 71.6197 13.0235 71.6763 13.855C71.733 14.668 71.7613 15.6129 71.7613 16.6903V17.7961H63.0714C63.0714 18.4389 63.0997 18.9585 63.1563 19.3555C63.2129 19.7333 63.3642 20.0169 63.6092 20.206C63.8547 20.3952 64.2319 20.5272 64.7414 20.603C65.2509 20.6597 65.9586 20.688 66.8644 20.688C67.2231 20.688 67.6476 20.6788 68.1381 20.6597C68.6291 20.6406 69.1386 20.6123 69.6666 20.5746C70.2142 20.537 70.7237 20.4989 71.1951 20.4612V23.6367C70.7803 23.7311 70.2708 23.8161 69.6666 23.8919C69.082 23.9677 68.4495 24.0244 67.7701 24.062C67.0908 24.0996 66.4305 24.1187 65.7887 24.1187ZM67.4871 15.8964V15.4428C67.4871 14.7623 67.4495 14.2236 67.3739 13.8267C67.3172 13.4297 67.204 13.1369 67.0342 12.9477C66.8834 12.74 66.6662 12.6075 66.3832 12.5508C66.1001 12.4941 65.7419 12.4658 65.3075 12.4658C64.8171 12.4658 64.4208 12.5034 64.1187 12.5792C63.8356 12.6359 63.619 12.7684 63.4676 12.9761C63.3169 13.1838 63.2129 13.4865 63.1563 13.8834C63.0997 14.2803 63.0714 14.8 63.0714 15.4428H67.9683L67.4871 15.8964ZM73.6475 23.8919V4.38522H80.4692C82.2056 4.38522 83.6209 4.47956 84.7151 4.66875C85.8097 4.83887 86.6682 5.14147 87.2909 5.57604C87.9136 5.99205 88.3573 6.57766 88.6213 7.33391C88.9043 8.07108 89.0839 8.99744 89.1591 10.1125C89.2347 11.2275 89.2723 12.5699 89.2723 14.1386C89.2723 15.7072 89.2347 17.0496 89.1591 18.1646C89.0839 19.2797 88.9043 20.2153 88.6213 20.9716C88.3573 21.7087 87.9136 22.2949 87.2909 22.7294C86.6682 23.1454 85.8097 23.4475 84.7151 23.6367C83.6209 23.8068 82.2056 23.8919 80.4692 23.8919H73.6475ZM78.5727 20.0926H80.356C81.13 20.0926 81.762 20.0736 82.2524 20.0359C82.7434 19.9792 83.1299 19.8658 83.413 19.6957C83.7151 19.5065 83.9225 19.2044 84.0357 18.7884C84.168 18.3538 84.2436 17.7677 84.2622 17.0305C84.3003 16.2743 84.3188 15.3103 84.3188 14.1386C84.3188 12.9668 84.3003 12.0121 84.2622 11.2749C84.2436 10.5187 84.168 9.93308 84.0357 9.51707C83.904 9.0825 83.6961 8.77062 83.413 8.58143C83.1299 8.39224 82.7434 8.27883 82.2524 8.24119C81.762 8.20356 81.13 8.18449 80.356 8.18449H78.5727V20.0926ZM99.342 24.1187C97.7003 24.1187 96.3508 24.0244 95.2943 23.8352C94.2562 23.6275 93.4446 23.3058 92.8599 22.8712C92.2748 22.4176 91.8409 21.8129 91.5579 21.0566C91.2934 20.2818 91.1235 19.3271 91.0484 18.193C90.9918 17.0589 90.9634 15.7072 90.9634 14.1386C90.9634 12.5699 90.9918 11.2182 91.0484 10.0841C91.1235 8.95001 91.2934 8.00509 91.5579 7.24885C91.8409 6.47404 92.2748 5.86885 92.8599 5.43428C93.4446 4.98063 94.2562 4.65947 95.2943 4.47028C96.3508 4.26253 97.7003 4.1584 99.342 4.1584C100.965 4.1584 102.295 4.26253 103.333 4.47028C104.39 4.65947 105.22 4.98063 105.824 5.43428C106.428 5.86885 106.862 6.47404 107.126 7.24885C107.39 8.00509 107.56 8.95001 107.636 10.0841C107.711 11.2182 107.749 12.5699 107.749 14.1386C107.749 15.7072 107.711 17.0589 107.636 18.193C107.56 19.3271 107.39 20.2818 107.126 21.0566C106.862 21.8129 106.428 22.4176 105.824 22.8712C105.22 23.3058 104.39 23.6275 103.333 23.8352C102.295 24.0244 100.965 24.1187 99.342 24.1187ZM99.342 20.3195C100.021 20.3195 100.568 20.3004 100.984 20.2628C101.418 20.206 101.757 20.0834 102.003 19.8942C102.248 19.6864 102.427 19.3647 102.541 18.9302C102.654 18.4956 102.72 17.8904 102.739 17.1156C102.776 16.3408 102.795 15.3485 102.795 14.1386C102.795 12.9287 102.776 11.9363 102.739 11.1615C102.72 10.3867 102.654 9.78152 102.541 9.34695C102.427 8.91238 102.248 8.6005 102.003 8.41131C101.757 8.20356 101.418 8.08036 100.984 8.04273C100.568 7.98602 100.021 7.95766 99.342 7.95766C98.6812 7.95766 98.1341 7.98602 97.7003 8.04273C97.2659 8.08036 96.9262 8.20356 96.6812 8.41131C96.4357 8.6005 96.2566 8.91238 96.1434 9.34695C96.0302 9.78152 95.9545 10.3867 95.917 11.1615C95.8979 11.9363 95.8887 12.9287 95.8887 14.1386C95.8887 15.3485 95.8979 16.3408 95.917 17.1156C95.9545 17.8904 96.0302 18.4956 96.1434 18.9302C96.2566 19.3647 96.4357 19.6864 96.6812 19.8942C96.9262 20.0834 97.2659 20.206 97.7003 20.2628C98.1341 20.3004 98.6812 20.3195 99.342 20.3195ZM113.725 23.8919V8.35461H108.403V4.38522H124V8.35461H118.65V23.8919H113.725Z" fill="white"/>
</svg>
