<svg width="118" height="28" viewBox="0 0 118 28" fill="none" xmlns="http://www.w3.org/2000/svg">
<path d="M34.0385 23.892V4.38527H43.8861C45.1762 4.38527 46.2158 4.52703 47.005 4.81056C47.8136 5.07502 48.4201 5.48175 48.8244 6.02974C49.2481 6.55916 49.5269 7.22055 49.6618 8.01443C49.8157 8.78924 49.8929 9.67797 49.8929 10.6796C49.8929 11.4168 49.8351 12.1632 49.7196 12.9195C49.6041 13.6566 49.3536 14.3371 48.9688 14.9609C48.6028 15.5656 48.0352 16.029 47.2649 16.3502L50.2683 23.892H45.0413L42.24 16.095L43.5107 16.7755C43.3374 16.8698 43.1547 16.9265 42.962 16.9456C42.7887 16.9646 42.5671 16.9739 42.2978 16.9739H39.0634V23.892H34.0385ZM39.0634 13.3164H41.9512C42.606 13.3164 43.1258 13.2881 43.5107 13.2314C43.915 13.1556 44.2132 13.0236 44.4059 12.8344C44.5986 12.6452 44.7236 12.3808 44.7813 12.0405C44.8391 11.7003 44.868 11.2657 44.868 10.7363C44.868 10.1883 44.8391 9.74396 44.7813 9.40372C44.743 9.06349 44.6275 8.80831 44.4348 8.6382C44.2615 8.44901 43.9727 8.31703 43.5684 8.24125C43.1836 8.16548 42.6443 8.12784 41.9512 8.12784H39.0634V13.3164ZM58.6106 24.1188C57.2244 24.1188 56.0792 24.0338 55.174 23.8637C54.2693 23.6936 53.5474 23.4291 53.0081 23.0698C52.4883 22.6919 52.094 22.2099 51.8241 21.6238C51.5742 21.0377 51.4103 20.3386 51.3331 19.5257C51.2754 18.7127 51.2465 17.7678 51.2465 16.6904C51.2465 15.3862 51.3043 14.2613 51.4198 13.3164C51.5547 12.3715 51.8435 11.5962 52.2861 10.9915C52.7293 10.3868 53.4124 9.94242 54.3365 9.6589C55.2801 9.35629 56.5507 9.20525 58.1485 9.20525C59.4386 9.20525 60.4877 9.29959 61.2963 9.48878C62.1049 9.6589 62.7403 9.93315 63.2023 10.311C63.6838 10.6703 64.0209 11.1425 64.2131 11.7287C64.4252 12.3148 64.5596 13.0236 64.6174 13.8551C64.6751 14.6681 64.704 15.613 64.704 16.6904V17.7962H55.8382C55.8382 18.439 55.8671 18.9586 55.9249 19.3556C55.9826 19.7334 56.137 20.017 56.3869 20.2062C56.6374 20.3953 57.0223 20.5273 57.5421 20.6031C58.0619 20.6598 58.7839 20.6882 59.708 20.6882C60.074 20.6882 60.5071 20.6789 61.0075 20.6598C61.5084 20.6407 62.0283 20.6124 62.567 20.5747C63.1256 20.5371 63.6455 20.499 64.1264 20.4613V23.6368C63.7032 23.7312 63.1834 23.8162 62.567 23.892C61.9705 23.9678 61.3252 24.0245 60.6321 24.0621C59.939 24.0998 59.2653 24.1188 58.6106 24.1188ZM60.3433 15.8965V15.4429C60.3433 14.7624 60.305 14.2237 60.2278 13.8268C60.17 13.4298 60.0545 13.137 59.8813 12.9478C59.7274 12.7401 59.5058 12.6076 59.217 12.5509C58.9283 12.4942 58.5628 12.4658 58.1196 12.4658C57.6193 12.4658 57.215 12.5035 56.9067 12.5792C56.618 12.6359 56.3969 12.7684 56.2425 12.9762C56.0887 13.1839 55.9826 13.4865 55.9249 13.8835C55.8671 14.2804 55.8382 14.8 55.8382 15.4429H60.8342L60.3433 15.8965ZM66.6284 23.892V4.38527H73.5882C75.3597 4.38527 76.8037 4.47961 77.92 4.6688C79.0368 4.83892 79.9126 5.14152 80.5479 5.57609C81.1833 5.9921 81.6359 6.57772 81.9052 7.33397C82.194 8.07114 82.3773 8.9975 82.4539 10.1125C82.5311 11.2276 82.5695 12.57 82.5695 14.1386C82.5695 15.7073 82.5311 17.0497 82.4539 18.1647C82.3773 19.2798 82.194 20.2154 81.9052 20.9717C81.6359 21.7088 81.1833 22.295 80.5479 22.7296C79.9126 23.1456 79.0368 23.4477 77.92 23.6368C76.8037 23.807 75.3597 23.892 73.5882 23.892H66.6284ZM71.6533 20.0927H73.4726C74.2623 20.0927 74.9071 20.0737 75.4075 20.036C75.9084 19.9793 76.3028 19.8659 76.5916 19.6958C76.8998 19.5066 77.1114 19.2045 77.2269 18.7885C77.3618 18.3539 77.439 17.7678 77.4579 17.0306C77.4968 16.2744 77.5157 15.3104 77.5157 14.1386C77.5157 12.9669 77.4968 12.0122 77.4579 11.275C77.439 10.5188 77.3618 9.93315 77.2269 9.51714C77.0925 9.08256 76.8803 8.77068 76.5916 8.58149C76.3028 8.3923 75.9084 8.27889 75.4075 8.24125C74.9071 8.20362 74.2623 8.18455 73.4726 8.18455H71.6533V20.0927ZM92.8429 24.1188C91.168 24.1188 89.7912 24.0245 88.7133 23.8353C87.6542 23.6276 86.8262 23.3059 86.2297 22.8713C85.6327 22.4177 85.1901 21.813 84.9013 21.0567C84.6314 20.2819 84.4581 19.3272 84.3815 18.1931C84.3237 17.059 84.2948 15.7073 84.2948 14.1386C84.2948 12.57 84.3237 11.2183 84.3815 10.0842C84.4581 8.95007 84.6314 8.00515 84.9013 7.2489C85.1901 6.4741 85.6327 5.8689 86.2297 5.43433C86.8262 4.98068 87.6542 4.65952 88.7133 4.47033C89.7912 4.26258 91.168 4.15845 92.8429 4.15845C94.4985 4.15845 95.8558 4.26258 96.9148 4.47033C97.9928 4.65952 98.8397 4.98068 99.4562 5.43433C100.072 5.8689 100.515 6.4741 100.785 7.2489C101.054 8.00515 101.227 8.95007 101.304 10.0842C101.381 11.2183 101.42 12.57 101.42 14.1386C101.42 15.7073 101.381 17.059 101.304 18.1931C101.227 19.3272 101.054 20.2819 100.785 21.0567C100.515 21.813 100.072 22.4177 99.4562 22.8713C98.8397 23.3059 97.9928 23.6276 96.9148 23.8353C95.8558 24.0245 94.4985 24.1188 92.8429 24.1188ZM92.8429 20.3196C93.536 20.3196 94.0942 20.3005 94.5179 20.2629C94.9605 20.2062 95.3071 20.0835 95.5575 19.8943C95.8075 19.6865 95.9907 19.3648 96.1062 18.9303C96.2217 18.4957 96.289 17.8905 96.3084 17.1157C96.3467 16.3409 96.3661 15.3485 96.3661 14.1386C96.3661 12.9288 96.3467 11.9364 96.3084 11.1616C96.289 10.3868 96.2217 9.78159 96.1062 9.34702C95.9907 8.91245 95.8075 8.60056 95.5575 8.41137C95.3071 8.20362 94.9605 8.08042 94.5179 8.04279C94.0942 7.98608 93.536 7.95772 92.8429 7.95772C92.1688 7.95772 91.6106 7.98608 91.168 8.04279C90.7248 8.08042 90.3783 8.20362 90.1283 8.41137C89.8779 8.60056 89.6951 8.91245 89.5796 9.34702C89.4641 9.78159 89.3869 10.3868 89.3486 11.1616C89.3292 11.9364 89.3197 12.9288 89.3197 14.1386C89.3197 15.3485 89.3292 16.3409 89.3486 17.1157C89.3869 17.8905 89.4641 18.4957 89.5796 18.9303C89.6951 19.3648 89.8779 19.6865 90.1283 19.8943C90.3783 20.0835 90.7248 20.2062 91.168 20.2629C91.6106 20.3005 92.1688 20.3196 92.8429 20.3196ZM107.517 23.892V8.35467H102.088V4.38527H118V8.35467H112.542V23.892H107.517Z" fill="white"/>
<path d="M10.0672 0L9.36635 2.18565C8.6029 2.51155 7.83941 2.8374 7.07604 3.1635C6.26604 2.99512 5.45395 2.80011 4.63314 2.7024C4.50356 2.84632 1.22508 7.82304 1.226 7.87445C1.37704 8.23952 1.63648 8.55356 1.83268 8.89517L13.7572 12.9083L25.6818 8.89517L26.2884 7.87445C26.2884 7.87445 23.0108 2.84632 22.8812 2.7024C22.0604 2.80011 21.2484 2.99512 20.4384 3.1635C19.675 2.8374 18.9115 2.51155 18.1481 2.18565L17.4472 0H10.0672ZM2.69525 10.4234L2.31215 14.1329L2.99745 16.9924L8.4944 19.4573L13.7572 17.5148L19.02 19.4573L24.5169 16.9924L25.2023 14.1329C25.2023 14.1329 24.9628 11.5793 24.8192 10.4234L13.7572 14.1446L2.69525 10.4234ZM5.87907 13.2017L11.0645 14.9672C11.0421 15.1513 11.0011 15.3327 10.942 15.5087C10.4373 16.9527 8.84182 17.7194 7.37863 17.2212C5.91541 16.7231 5.13848 15.1486 5.64333 13.7047C5.70464 13.5297 5.78364 13.3612 5.87907 13.2017ZM21.6353 13.2017C21.7308 13.3612 21.8098 13.5297 21.8711 13.7047C22.376 15.1486 21.599 16.7231 20.1358 17.2212C18.6726 17.7194 17.0772 16.9527 16.5724 15.5087C16.5133 15.3327 16.4723 15.1513 16.45 14.9672L21.6353 13.2017ZM1.32002 15.1242L0 16.415L1.97752 23.2581L8.22765 25.7881L7.89138 20.4648L1.96413 17.7428L1.32002 15.1242ZM26.1944 15.1242L25.5503 17.7428L19.6231 20.4648L19.2868 25.7881L25.5369 23.2581L27.5144 16.415L26.1944 15.1242ZM13.7572 18.6489L9.07036 20.4795L9.35483 26.23L13.7572 28L18.1596 26.23L18.4441 20.4795L13.7572 18.6489Z" fill="#FE3F02"/>
</svg>
